G04*
G04 #@! TF.GenerationSoftware,Altium Limited,CircuitMaker,2.2.1 (2.2.1.6)*
G04*
G04 Layer_Physical_Order=1*
G04 Layer_Color=25308*
%FSLAX25Y25*%
%MOIN*%
G70*
G04*
G04 #@! TF.SameCoordinates,4B569A1E-B195-418F-9F09-93343C68B421*
G04*
G04*
G04 #@! TF.FilePolarity,Positive*
G04*
G01*
G75*
%ADD16C,0.01000*%
%ADD32C,0.05000*%
%ADD33C,0.00600*%
%ADD34C,0.07500*%
%ADD35C,0.09842*%
%ADD36C,0.07874*%
%ADD37O,0.11811X0.07874*%
%ADD38O,0.11811X0.07874*%
%ADD39C,0.11811*%
%ADD40O,0.11811X0.03937*%
%ADD41R,0.07874X0.07874*%
%ADD42R,0.07874X0.07874*%
%ADD43O,0.11811X0.07087*%
%ADD44R,0.09842X0.09842*%
%ADD45C,0.05905*%
D16*
X91000Y106000D02*
X93000Y100000D01*
X95000Y106000D01*
X93000Y500000D02*
X95000Y494000D01*
X91000D02*
X93000Y500000D01*
Y100000D02*
Y277806D01*
Y318994D02*
Y500000D01*
X92000Y100000D02*
X99000D01*
X92000Y500000D02*
X99000D01*
X100000Y96500D02*
X106000Y98500D01*
X100000Y96500D02*
X106000Y94500D01*
X694000D02*
X700000Y96500D01*
X694000Y98500D02*
X700000Y96500D01*
X100000D02*
X377306D01*
X419494D02*
X700000D01*
X100000Y95500D02*
Y99000D01*
X700000Y95500D02*
Y99000D01*
D32*
X306000Y204500D02*
X342000D01*
X482000Y301500D02*
Y358000D01*
X511500Y271000D02*
X543500D01*
X583000Y276000D02*
Y298500D01*
X571000Y279500D02*
Y308000D01*
X512000Y288000D02*
Y349000D01*
X296500Y479000D02*
X330500D01*
D33*
X97599Y279406D02*
Y281405D01*
Y280406D01*
X91601D01*
X92600Y279406D01*
Y284404D02*
X91601Y285404D01*
Y287403D01*
X92600Y288403D01*
X96599D01*
X97599Y287403D01*
Y285404D01*
X96599Y284404D01*
X92600D01*
X98598Y291402D02*
X97599Y292402D01*
X96599D01*
Y291402D01*
X97599D01*
Y292402D01*
X98598Y291402D01*
X99598Y290403D01*
X97599Y296401D02*
Y298400D01*
Y297400D01*
X91601D01*
X92600Y296401D01*
X91601Y305398D02*
X92600Y303398D01*
X94600Y301399D01*
X96599D01*
X97599Y302399D01*
Y304398D01*
X96599Y305398D01*
X95599D01*
X94600Y304398D01*
Y301399D01*
X93600Y311396D02*
Y308397D01*
X94600Y307397D01*
X96599D01*
X97599Y308397D01*
Y311396D01*
Y313395D02*
X93600D01*
Y314395D01*
X94600Y315394D01*
X97599D01*
X94600D01*
X93600Y316394D01*
X94600Y317394D01*
X97599D01*
X378906Y91901D02*
X380906D01*
X379906D01*
Y97899D01*
X378906Y96900D01*
X387903Y97899D02*
X383905D01*
Y94900D01*
X385904Y95900D01*
X386904D01*
X387903Y94900D01*
Y92901D01*
X386904Y91901D01*
X384904D01*
X383905Y92901D01*
X390902Y90902D02*
X391902Y91901D01*
Y92901D01*
X390902D01*
Y91901D01*
X391902D01*
X390902Y90902D01*
X389903Y89902D01*
X399900Y91901D02*
X395901D01*
X399900Y95900D01*
Y96900D01*
X398900Y97899D01*
X396901D01*
X395901Y96900D01*
X404898Y91901D02*
Y97899D01*
X401899Y94900D01*
X405898D01*
X411896Y95900D02*
X408897D01*
X407897Y94900D01*
Y92901D01*
X408897Y91901D01*
X411896D01*
X413895D02*
Y95900D01*
X414895D01*
X415894Y94900D01*
Y91901D01*
Y94900D01*
X416894Y95900D01*
X417894Y94900D01*
Y91901D01*
D34*
X364500Y204000D02*
D03*
X354500D02*
D03*
D35*
X491000Y378500D02*
D03*
X531000D02*
D03*
Y365500D02*
D03*
X491000D02*
D03*
X307000Y357000D02*
D03*
X267000D02*
D03*
X172500Y344000D02*
D03*
X132500D02*
D03*
X527500Y475000D02*
D03*
X497000D02*
D03*
X531000Y391500D02*
D03*
X491000D02*
D03*
X527500Y435000D02*
D03*
X497000D02*
D03*
X289500Y180000D02*
D03*
Y140000D02*
D03*
X267500Y488000D02*
D03*
X307500D02*
D03*
Y470000D02*
D03*
X267500D02*
D03*
X267000Y451000D02*
D03*
X307000D02*
D03*
X267000Y438000D02*
D03*
X307000D02*
D03*
X267000Y338500D02*
D03*
X307000D02*
D03*
X173000Y451500D02*
D03*
X133000D02*
D03*
X173000Y438500D02*
D03*
X133000D02*
D03*
Y357500D02*
D03*
X173000D02*
D03*
X166500Y243500D02*
D03*
Y203500D02*
D03*
X151000D02*
D03*
Y243500D02*
D03*
X136000Y203500D02*
D03*
Y243500D02*
D03*
X273358Y124205D02*
D03*
Y149795D02*
D03*
X255642D02*
D03*
X236858Y123705D02*
D03*
Y149295D02*
D03*
X219142D02*
D03*
X199358Y123705D02*
D03*
Y149295D02*
D03*
X181642D02*
D03*
X161858Y123705D02*
D03*
Y149295D02*
D03*
X144142D02*
D03*
X305000Y140000D02*
D03*
Y180000D02*
D03*
X181500Y203500D02*
D03*
Y243500D02*
D03*
X211500Y203500D02*
D03*
Y243500D02*
D03*
X196500Y203500D02*
D03*
Y243500D02*
D03*
D36*
X537000Y170500D02*
D03*
X497000D02*
D03*
X667000Y235500D02*
D03*
X510000Y151000D02*
D03*
X489740Y222500D02*
D03*
Y212500D02*
D03*
Y202500D02*
D03*
X473000Y238500D02*
D03*
Y198500D02*
D03*
X488000Y271000D02*
D03*
X478000D02*
D03*
X468000D02*
D03*
X458000D02*
D03*
X448000D02*
D03*
X227000Y367500D02*
D03*
X237000D02*
D03*
X247000D02*
D03*
X257000D02*
D03*
X267000D02*
D03*
X227000Y427500D02*
D03*
X237000D02*
D03*
X247000D02*
D03*
X257000D02*
D03*
X267000D02*
D03*
X173000Y367500D02*
D03*
X183000D02*
D03*
X193000D02*
D03*
X203000D02*
D03*
X213000D02*
D03*
X173000Y427500D02*
D03*
X183000D02*
D03*
X193000D02*
D03*
X203000D02*
D03*
X213000D02*
D03*
X253000Y243300D02*
D03*
Y233300D02*
D03*
Y223300D02*
D03*
Y213300D02*
D03*
X283000Y243300D02*
D03*
Y233300D02*
D03*
Y223300D02*
D03*
X153000Y171000D02*
D03*
Y181000D02*
D03*
X190500Y171500D02*
D03*
Y181500D02*
D03*
X228000Y171500D02*
D03*
Y181500D02*
D03*
X265500D02*
D03*
Y171500D02*
D03*
X667000Y265500D02*
D03*
Y255500D02*
D03*
Y245500D02*
D03*
X316500Y271000D02*
D03*
X326500D02*
D03*
X336500D02*
D03*
X346500D02*
D03*
X356500D02*
D03*
X342000Y204500D02*
D03*
X482000Y358000D02*
D03*
Y301500D02*
D03*
X543500Y271000D02*
D03*
X583000Y298500D02*
D03*
Y276000D02*
D03*
X571000Y308000D02*
D03*
Y279500D02*
D03*
X512000Y349000D02*
D03*
Y288000D02*
D03*
X511500Y271000D02*
D03*
X330500Y479000D02*
D03*
X296500D02*
D03*
X306000Y204500D02*
D03*
D37*
X337000Y358000D02*
D03*
Y288000D02*
D03*
Y468000D02*
D03*
Y458000D02*
D03*
Y448000D02*
D03*
Y438000D02*
D03*
Y428000D02*
D03*
Y418000D02*
D03*
Y408000D02*
D03*
Y398000D02*
D03*
Y388000D02*
D03*
Y378000D02*
D03*
Y368000D02*
D03*
Y328000D02*
D03*
Y318000D02*
D03*
Y308000D02*
D03*
Y298000D02*
D03*
X468500Y468000D02*
D03*
Y458000D02*
D03*
Y448000D02*
D03*
Y438000D02*
D03*
Y428000D02*
D03*
Y418000D02*
D03*
Y408000D02*
D03*
Y398000D02*
D03*
Y388000D02*
D03*
Y378000D02*
D03*
Y368000D02*
D03*
Y358000D02*
D03*
Y348000D02*
D03*
Y338000D02*
D03*
Y328000D02*
D03*
Y318000D02*
D03*
Y308000D02*
D03*
Y298000D02*
D03*
Y288000D02*
D03*
D38*
X337000Y338000D02*
D03*
Y348000D02*
D03*
D39*
X554000Y475500D02*
D03*
Y435500D02*
D03*
X584374Y479622D02*
D03*
X677000Y476185D02*
D03*
X599000Y359000D02*
D03*
Y379000D02*
D03*
Y399000D02*
D03*
X677000Y436815D02*
D03*
Y456500D02*
D03*
X576500Y456000D02*
D03*
X632406Y479622D02*
D03*
Y432378D02*
D03*
X584374D02*
D03*
D40*
X550500Y386858D02*
D03*
Y380953D02*
D03*
Y375047D02*
D03*
Y369142D02*
D03*
D41*
X524000Y151000D02*
D03*
D42*
X489740Y232500D02*
D03*
X283000Y213300D02*
D03*
D43*
X357421Y458000D02*
D03*
Y418000D02*
D03*
Y378000D02*
D03*
Y338000D02*
D03*
Y298000D02*
D03*
Y468000D02*
D03*
Y438000D02*
D03*
Y428000D02*
D03*
Y408000D02*
D03*
Y398000D02*
D03*
Y368000D02*
D03*
Y358000D02*
D03*
Y348000D02*
D03*
Y328000D02*
D03*
Y318000D02*
D03*
Y308000D02*
D03*
Y448000D02*
D03*
Y388000D02*
D03*
Y288000D02*
D03*
X447579D02*
D03*
Y458000D02*
D03*
Y418000D02*
D03*
Y378000D02*
D03*
Y338000D02*
D03*
Y298000D02*
D03*
Y468000D02*
D03*
Y438000D02*
D03*
Y428000D02*
D03*
Y408000D02*
D03*
Y398000D02*
D03*
Y368000D02*
D03*
Y358000D02*
D03*
Y348000D02*
D03*
Y328000D02*
D03*
Y318000D02*
D03*
Y308000D02*
D03*
Y448000D02*
D03*
Y388000D02*
D03*
D44*
X255642Y124205D02*
D03*
X219142Y123705D02*
D03*
X181642D02*
D03*
X144142D02*
D03*
D45*
X511000Y459500D02*
D03*
Y449500D02*
D03*
X516000Y454500D02*
D03*
X246000Y463500D02*
D03*
X251000Y458500D02*
D03*
X241000D02*
D03*
X188500Y459000D02*
D03*
X198500D02*
D03*
X193500Y464000D02*
D03*
M02*
