G04*
G04 #@! TF.GenerationSoftware,Altium Limited,CircuitMaker,2.2.1 (2.2.1.6)*
G04*
G04 Layer_Color=128*
%FSLAX25Y25*%
%MOIN*%
G70*
G04*
G04 #@! TF.SameCoordinates,4B569A1E-B195-418F-9F09-93343C68B421*
G04*
G04*
G04 #@! TF.FilePolarity,Positive*
G04*
G01*
G75*
%ADD51C,0.00200*%
D51*
X362728Y204000D02*
X366272D01*
X364500Y202228D02*
Y205772D01*
X352728Y204000D02*
X356272D01*
X354500Y202228D02*
Y205772D01*
X489524Y378500D02*
X492476D01*
X491000Y377024D02*
Y379976D01*
X529524Y378500D02*
X532476D01*
X531000Y377024D02*
Y379976D01*
X529524Y365500D02*
X532476D01*
X531000Y364024D02*
Y366976D01*
X489524Y365500D02*
X492476D01*
X491000Y364024D02*
Y366976D01*
X535524Y170500D02*
X538476D01*
X537000Y169024D02*
Y171976D01*
X495524Y170500D02*
X498476D01*
X497000Y169024D02*
Y171976D01*
X335032Y358000D02*
X338968D01*
X337000Y356031D02*
Y359968D01*
X335032Y338000D02*
X338968D01*
X337000Y336032D02*
Y339968D01*
X335032Y288000D02*
X338968D01*
X337000Y286032D02*
Y289968D01*
X305524Y357000D02*
X308476D01*
X307000Y355524D02*
Y358476D01*
X265524Y357000D02*
X268476D01*
X267000Y355524D02*
Y358476D01*
X171024Y344000D02*
X173976D01*
X172500Y342524D02*
Y345476D01*
X131024Y344000D02*
X133976D01*
X132500Y342524D02*
Y345476D01*
X665031Y235500D02*
X668968D01*
X667000Y233531D02*
Y237469D01*
X552000Y475500D02*
X556000D01*
X554000Y473500D02*
Y477500D01*
X552000Y435500D02*
X556000D01*
X554000Y433500D02*
Y437500D01*
X526024Y475000D02*
X528976D01*
X527500Y473524D02*
Y476476D01*
X495524Y475000D02*
X498476D01*
X497000Y473524D02*
Y476476D01*
X581716Y479622D02*
X587032D01*
X584374Y476965D02*
Y482279D01*
X674835Y476185D02*
X679165D01*
X677000Y474020D02*
Y478350D01*
X529524Y391500D02*
X532476D01*
X531000Y390024D02*
Y392976D01*
X489524Y391500D02*
X492476D01*
X491000Y390024D02*
Y392976D01*
X596650Y359000D02*
X601350D01*
X599000Y356650D02*
Y361350D01*
X596650Y379000D02*
X601350D01*
X599000Y376650D02*
Y381350D01*
X596650Y399000D02*
X601350D01*
X599000Y396650D02*
Y401350D01*
X674835Y436815D02*
X679165D01*
X677000Y434650D02*
Y438980D01*
X674835Y456500D02*
X679165D01*
X677000Y454335D02*
Y458665D01*
X573842Y456000D02*
X579157D01*
X576500Y453342D02*
Y458658D01*
X629748Y479622D02*
X635063D01*
X632406Y476965D02*
Y482279D01*
X629748Y432378D02*
X635063D01*
X632406Y429720D02*
Y435035D01*
X581716Y432378D02*
X587032D01*
X584374Y429720D02*
Y435035D01*
X526024Y435000D02*
X528976D01*
X527500Y433524D02*
Y436476D01*
X495524Y435000D02*
X498476D01*
X497000Y433524D02*
Y436476D01*
X549000Y386858D02*
X552000D01*
X550500Y385358D02*
Y388358D01*
X549000Y380953D02*
X552000D01*
X550500Y379453D02*
Y382453D01*
X549000Y375047D02*
X552000D01*
X550500Y373547D02*
Y376547D01*
X549000Y369142D02*
X552000D01*
X550500Y367642D02*
Y370642D01*
X508500Y151000D02*
X511500D01*
X510000Y149500D02*
Y152500D01*
X522500Y151000D02*
X525500D01*
X524000Y149500D02*
Y152500D01*
X487990Y232500D02*
X491490D01*
X489740Y230750D02*
Y234250D01*
X487990Y222500D02*
X491490D01*
X489740Y220750D02*
Y224250D01*
X487990Y212500D02*
X491490D01*
X489740Y210750D02*
Y214250D01*
X487990Y202500D02*
X491490D01*
X489740Y200750D02*
Y204250D01*
X471524Y238500D02*
X474476D01*
X473000Y237024D02*
Y239976D01*
X471524Y198500D02*
X474476D01*
X473000Y197024D02*
Y199976D01*
X288024Y180000D02*
X290976D01*
X289500Y178524D02*
Y181476D01*
X288024Y140000D02*
X290976D01*
X289500Y138524D02*
Y141476D01*
X485835Y271000D02*
X490165D01*
X488000Y268835D02*
Y273165D01*
X475835Y271000D02*
X480165D01*
X478000Y268835D02*
Y273165D01*
X465835Y271000D02*
X470165D01*
X468000Y268835D02*
Y273165D01*
X455835Y271000D02*
X460165D01*
X458000Y268835D02*
Y273165D01*
X445835Y271000D02*
X450165D01*
X448000Y268835D02*
Y273165D01*
X355256Y458000D02*
X359587D01*
X357421Y455835D02*
Y460165D01*
X355256Y418000D02*
X359587D01*
X357421Y415835D02*
Y420165D01*
X355256Y378000D02*
X359587D01*
X357421Y375835D02*
Y380165D01*
X355256Y338000D02*
X359587D01*
X357421Y335835D02*
Y340165D01*
X355256Y298000D02*
X359587D01*
X357421Y295835D02*
Y300165D01*
X355256Y468000D02*
X359587D01*
X357421Y465835D02*
Y470165D01*
X355256Y438000D02*
X359587D01*
X357421Y435835D02*
Y440165D01*
X355256Y428000D02*
X359587D01*
X357421Y425835D02*
Y430165D01*
X355256Y408000D02*
X359587D01*
X357421Y405835D02*
Y410165D01*
X355256Y398000D02*
X359587D01*
X357421Y395835D02*
Y400165D01*
X355256Y368000D02*
X359587D01*
X357421Y365835D02*
Y370165D01*
X355256Y358000D02*
X359587D01*
X357421Y355835D02*
Y360165D01*
X355256Y348000D02*
X359587D01*
X357421Y345835D02*
Y350165D01*
X355256Y328000D02*
X359587D01*
X357421Y325835D02*
Y330165D01*
X355256Y318000D02*
X359587D01*
X357421Y315835D02*
Y320165D01*
X355256Y308000D02*
X359587D01*
X357421Y305835D02*
Y310165D01*
X355256Y448000D02*
X359587D01*
X357421Y445835D02*
Y450165D01*
X355256Y388000D02*
X359587D01*
X357421Y385835D02*
Y390165D01*
X355256Y288000D02*
X359587D01*
X357421Y285835D02*
Y290165D01*
X445413Y288000D02*
X449744D01*
X447579Y285835D02*
Y290165D01*
X445413Y458000D02*
X449744D01*
X447579Y455835D02*
Y460165D01*
X445413Y418000D02*
X449744D01*
X447579Y415835D02*
Y420165D01*
X445413Y378000D02*
X449744D01*
X447579Y375835D02*
Y380165D01*
X445413Y338000D02*
X449744D01*
X447579Y335835D02*
Y340165D01*
X445413Y298000D02*
X449744D01*
X447579Y295835D02*
Y300165D01*
X445413Y468000D02*
X449744D01*
X447579Y465835D02*
Y470165D01*
X445413Y438000D02*
X449744D01*
X447579Y435835D02*
Y440165D01*
X445413Y428000D02*
X449744D01*
X447579Y425835D02*
Y430165D01*
X445413Y408000D02*
X449744D01*
X447579Y405835D02*
Y410165D01*
X445413Y398000D02*
X449744D01*
X447579Y395835D02*
Y400165D01*
X445413Y368000D02*
X449744D01*
X447579Y365835D02*
Y370165D01*
X445413Y358000D02*
X449744D01*
X447579Y355835D02*
Y360165D01*
X445413Y348000D02*
X449744D01*
X447579Y345835D02*
Y350165D01*
X445413Y328000D02*
X449744D01*
X447579Y325835D02*
Y330165D01*
X445413Y318000D02*
X449744D01*
X447579Y315835D02*
Y320165D01*
X445413Y308000D02*
X449744D01*
X447579Y305835D02*
Y310165D01*
X445413Y448000D02*
X449744D01*
X447579Y445835D02*
Y450165D01*
X445413Y388000D02*
X449744D01*
X447579Y385835D02*
Y390165D01*
X266024Y488000D02*
X268976D01*
X267500Y486524D02*
Y489476D01*
X306024Y488000D02*
X308976D01*
X307500Y486524D02*
Y489476D01*
X306024Y470000D02*
X308976D01*
X307500Y468524D02*
Y471476D01*
X266024Y470000D02*
X268976D01*
X267500Y468524D02*
Y471476D01*
X265524Y451000D02*
X268476D01*
X267000Y449524D02*
Y452476D01*
X305524Y451000D02*
X308476D01*
X307000Y449524D02*
Y452476D01*
X265524Y438000D02*
X268476D01*
X267000Y436524D02*
Y439476D01*
X305524Y438000D02*
X308476D01*
X307000Y436524D02*
Y439476D01*
X265524Y338500D02*
X268476D01*
X267000Y337024D02*
Y339976D01*
X305524Y338500D02*
X308476D01*
X307000Y337024D02*
Y339976D01*
X225425Y367500D02*
X228575D01*
X227000Y365925D02*
Y369075D01*
X235425Y367500D02*
X238575D01*
X237000Y365925D02*
Y369075D01*
X245425Y367500D02*
X248575D01*
X247000Y365925D02*
Y369075D01*
X255425Y367500D02*
X258575D01*
X257000Y365925D02*
Y369075D01*
X265425Y367500D02*
X268575D01*
X267000Y365925D02*
Y369075D01*
X225425Y427500D02*
X228575D01*
X227000Y425925D02*
Y429075D01*
X235425Y427500D02*
X238575D01*
X237000Y425925D02*
Y429075D01*
X245425Y427500D02*
X248575D01*
X247000Y425925D02*
Y429075D01*
X255425Y427500D02*
X258575D01*
X257000Y425925D02*
Y429075D01*
X265425Y427500D02*
X268575D01*
X267000Y425925D02*
Y429075D01*
X171425Y367500D02*
X174575D01*
X173000Y365925D02*
Y369075D01*
X181425Y367500D02*
X184575D01*
X183000Y365925D02*
Y369075D01*
X191425Y367500D02*
X194575D01*
X193000Y365925D02*
Y369075D01*
X201425Y367500D02*
X204575D01*
X203000Y365925D02*
Y369075D01*
X211425Y367500D02*
X214575D01*
X213000Y365925D02*
Y369075D01*
X171425Y427500D02*
X174575D01*
X173000Y425925D02*
Y429075D01*
X181425Y427500D02*
X184575D01*
X183000Y425925D02*
Y429075D01*
X191425Y427500D02*
X194575D01*
X193000Y425925D02*
Y429075D01*
X201425Y427500D02*
X204575D01*
X203000Y425925D02*
Y429075D01*
X211425Y427500D02*
X214575D01*
X213000Y425925D02*
Y429075D01*
X171524Y451500D02*
X174476D01*
X173000Y450024D02*
Y452976D01*
X131524Y451500D02*
X134476D01*
X133000Y450024D02*
Y452976D01*
X171524Y438500D02*
X174476D01*
X173000Y437024D02*
Y439976D01*
X131524Y438500D02*
X134476D01*
X133000Y437024D02*
Y439976D01*
X131524Y357500D02*
X134476D01*
X133000Y356024D02*
Y358976D01*
X171524Y357500D02*
X174476D01*
X173000Y356024D02*
Y358976D01*
X165024Y243500D02*
X167976D01*
X166500Y242024D02*
Y244976D01*
X165024Y203500D02*
X167976D01*
X166500Y202024D02*
Y204976D01*
X149524Y203500D02*
X152476D01*
X151000Y202024D02*
Y204976D01*
X149524Y243500D02*
X152476D01*
X151000Y242024D02*
Y244976D01*
X134524Y203500D02*
X137476D01*
X136000Y202024D02*
Y204976D01*
X134524Y243500D02*
X137476D01*
X136000Y242024D02*
Y244976D01*
X251228Y243300D02*
X254772D01*
X253000Y241528D02*
Y245072D01*
X251228Y233300D02*
X254772D01*
X253000Y231528D02*
Y235072D01*
X251228Y223300D02*
X254772D01*
X253000Y221528D02*
Y225072D01*
X251228Y213300D02*
X254772D01*
X253000Y211528D02*
Y215072D01*
X281228Y243300D02*
X284772D01*
X283000Y241528D02*
Y245072D01*
X281228Y233300D02*
X284772D01*
X283000Y231528D02*
Y235072D01*
X281228Y223300D02*
X284772D01*
X283000Y221528D02*
Y225072D01*
X281228Y213300D02*
X284772D01*
X283000Y211528D02*
Y215072D01*
X271390Y124205D02*
X275327D01*
X273358Y122236D02*
Y126173D01*
X271390Y149795D02*
X275327D01*
X273358Y147827D02*
Y151764D01*
X253673Y124205D02*
X257610D01*
X255642Y122236D02*
Y126173D01*
X253673Y149795D02*
X257610D01*
X255642Y147827D02*
Y151764D01*
X234890Y123705D02*
X238827D01*
X236858Y121736D02*
Y125673D01*
X234890Y149295D02*
X238827D01*
X236858Y147327D02*
Y151264D01*
X217173Y123705D02*
X221110D01*
X219142Y121736D02*
Y125673D01*
X217173Y149295D02*
X221110D01*
X219142Y147327D02*
Y151264D01*
X197390Y123705D02*
X201327D01*
X199358Y121736D02*
Y125673D01*
X197390Y149295D02*
X201327D01*
X199358Y147327D02*
Y151264D01*
X179673Y123705D02*
X183610D01*
X181642Y121736D02*
Y125673D01*
X179673Y149295D02*
X183610D01*
X181642Y147327D02*
Y151264D01*
X159890Y123705D02*
X163827D01*
X161858Y121736D02*
Y125673D01*
X159890Y149295D02*
X163827D01*
X161858Y147327D02*
Y151264D01*
X142173Y123705D02*
X146110D01*
X144142Y121736D02*
Y125673D01*
X142173Y149295D02*
X146110D01*
X144142Y147327D02*
Y151264D01*
X151600Y171000D02*
X154400D01*
X153000Y169600D02*
Y172400D01*
X151600Y181000D02*
X154400D01*
X153000Y179600D02*
Y182400D01*
X189100Y171500D02*
X191900D01*
X190500Y170100D02*
Y172900D01*
X189100Y181500D02*
X191900D01*
X190500Y180100D02*
Y182900D01*
X226600Y171500D02*
X229400D01*
X228000Y170100D02*
Y172900D01*
X226600Y181500D02*
X229400D01*
X228000Y180100D02*
Y182900D01*
X264100Y181500D02*
X266900D01*
X265500Y180100D02*
Y182900D01*
X264100Y171500D02*
X266900D01*
X265500Y170100D02*
Y172900D01*
X665031Y265500D02*
X668968D01*
X667000Y263531D02*
Y267469D01*
X665031Y255500D02*
X668968D01*
X667000Y253532D02*
Y257469D01*
X665031Y245500D02*
X668968D01*
X667000Y243531D02*
Y247468D01*
X509425Y459500D02*
X512575D01*
X511000Y457925D02*
Y461075D01*
X509425Y449500D02*
X512575D01*
X511000Y447925D02*
Y451075D01*
X514425Y454500D02*
X517575D01*
X516000Y452925D02*
Y456075D01*
X303524Y140000D02*
X306476D01*
X305000Y138524D02*
Y141476D01*
X303524Y180000D02*
X306476D01*
X305000Y178524D02*
Y181476D01*
X180024Y203500D02*
X182976D01*
X181500Y202024D02*
Y204976D01*
X180024Y243500D02*
X182976D01*
X181500Y242024D02*
Y244976D01*
X210024Y203500D02*
X212976D01*
X211500Y202024D02*
Y204976D01*
X210024Y243500D02*
X212976D01*
X211500Y242024D02*
Y244976D01*
X195024Y203500D02*
X197976D01*
X196500Y202024D02*
Y204976D01*
X195024Y243500D02*
X197976D01*
X196500Y242024D02*
Y244976D01*
X244425Y463500D02*
X247575D01*
X246000Y461925D02*
Y465075D01*
X249425Y458500D02*
X252575D01*
X251000Y456925D02*
Y460075D01*
X239425Y458500D02*
X242575D01*
X241000Y456925D02*
Y460075D01*
X314335Y271000D02*
X318665D01*
X316500Y268835D02*
Y273165D01*
X324335Y271000D02*
X328665D01*
X326500Y268835D02*
Y273165D01*
X334335Y271000D02*
X338665D01*
X336500Y268835D02*
Y273165D01*
X344335Y271000D02*
X348665D01*
X346500Y268835D02*
Y273165D01*
X354335Y271000D02*
X358665D01*
X356500Y268835D02*
Y273165D01*
X186925Y459000D02*
X190075D01*
X188500Y457425D02*
Y460575D01*
X196925Y459000D02*
X200075D01*
X198500Y457425D02*
Y460575D01*
X191925Y464000D02*
X195075D01*
X193500Y462425D02*
Y465575D01*
X335032Y468000D02*
X338968D01*
X337000Y466032D02*
Y469969D01*
X335032Y458000D02*
X338968D01*
X337000Y456032D02*
Y459969D01*
X335032Y448000D02*
X338968D01*
X337000Y446032D02*
Y449968D01*
X335032Y438000D02*
X338968D01*
X337000Y436031D02*
Y439968D01*
X335032Y428000D02*
X338968D01*
X337000Y426031D02*
Y429969D01*
X335032Y418000D02*
X338968D01*
X337000Y416032D02*
Y419969D01*
X335032Y408000D02*
X338968D01*
X337000Y406032D02*
Y409969D01*
X335032Y398000D02*
X338968D01*
X337000Y396031D02*
Y399969D01*
X335032Y388000D02*
X338968D01*
X337000Y386032D02*
Y389968D01*
X335032Y378000D02*
X338968D01*
X337000Y376031D02*
Y379969D01*
X335032Y368000D02*
X338968D01*
X337000Y366032D02*
Y369969D01*
X335032Y348000D02*
X338968D01*
X337000Y346031D02*
Y349969D01*
X335032Y328000D02*
X338968D01*
X337000Y326031D02*
Y329969D01*
X335032Y318000D02*
X338968D01*
X337000Y316032D02*
Y319969D01*
X335032Y308000D02*
X338968D01*
X337000Y306031D02*
Y309968D01*
X335032Y298000D02*
X338968D01*
X337000Y296031D02*
Y299969D01*
X466532Y468000D02*
X470469D01*
X468500Y466032D02*
Y469969D01*
X466532Y458000D02*
X470469D01*
X468500Y456032D02*
Y459969D01*
X466532Y448000D02*
X470469D01*
X468500Y446032D02*
Y449968D01*
X466532Y438000D02*
X470469D01*
X468500Y436031D02*
Y439968D01*
X466532Y428000D02*
X470469D01*
X468500Y426031D02*
Y429969D01*
X466532Y418000D02*
X470469D01*
X468500Y416032D02*
Y419969D01*
X466532Y408000D02*
X470469D01*
X468500Y406032D02*
Y409969D01*
X466532Y398000D02*
X470469D01*
X468500Y396031D02*
Y399969D01*
X466532Y388000D02*
X470469D01*
X468500Y386032D02*
Y389968D01*
X466532Y378000D02*
X470469D01*
X468500Y376031D02*
Y379969D01*
X466532Y368000D02*
X470469D01*
X468500Y366032D02*
Y369969D01*
X466532Y358000D02*
X470469D01*
X468500Y356031D02*
Y359968D01*
X466532Y348000D02*
X470469D01*
X468500Y346031D02*
Y349969D01*
X466532Y338000D02*
X470469D01*
X468500Y336032D02*
Y339968D01*
X466532Y328000D02*
X470469D01*
X468500Y326031D02*
Y329969D01*
X466532Y318000D02*
X470469D01*
X468500Y316032D02*
Y319969D01*
X466532Y308000D02*
X470469D01*
X468500Y306031D02*
Y309968D01*
X466532Y298000D02*
X470469D01*
X468500Y296031D02*
Y299969D01*
X466532Y288000D02*
X470469D01*
X468500Y286032D02*
Y289968D01*
X340600Y204500D02*
X343400D01*
X342000Y203100D02*
Y205900D01*
X480600Y358000D02*
X483400D01*
X482000Y356600D02*
Y359400D01*
X480600Y301500D02*
X483400D01*
X482000Y300100D02*
Y302900D01*
X542100Y271000D02*
X544900D01*
X543500Y269600D02*
Y272400D01*
X581600Y298500D02*
X584400D01*
X583000Y297100D02*
Y299900D01*
X581600Y276000D02*
X584400D01*
X583000Y274600D02*
Y277400D01*
X569600Y308000D02*
X572400D01*
X571000Y306600D02*
Y309400D01*
X569600Y279500D02*
X572400D01*
X571000Y278100D02*
Y280900D01*
X510600Y349000D02*
X513400D01*
X512000Y347600D02*
Y350400D01*
X510600Y288000D02*
X513400D01*
X512000Y286600D02*
Y289400D01*
X510100Y271000D02*
X512900D01*
X511500Y269600D02*
Y272400D01*
X329100Y479000D02*
X331900D01*
X330500Y477600D02*
Y480400D01*
X295100Y479000D02*
X297900D01*
X296500Y477600D02*
Y480400D01*
X304600Y204500D02*
X307400D01*
X306000Y203100D02*
Y205900D01*
M02*
