G04*
G04 #@! TF.GenerationSoftware,Altium Limited,CircuitMaker,2.2.1 (2.2.1.6)*
G04*
G04 Layer_Color=11661055*
%FSLAX25Y25*%
%MOIN*%
G70*
G04*
G04 #@! TF.SameCoordinates,4B569A1E-B195-418F-9F09-93343C68B421*
G04*
G04*
G04 #@! TF.FilePolarity,Positive*
G04*
G01*
G75*
G36*
X675946Y354312D02*
X674924D01*
Y358134D01*
X671125Y354312D01*
X669736D01*
X672958Y357434D01*
X669591Y362000D01*
X670936D01*
X673669Y358123D01*
X674924Y359334D01*
Y362000D01*
X675946D01*
Y354312D01*
D02*
G37*
G36*
X691611Y355990D02*
X691622Y356001D01*
X691678Y356045D01*
X691745Y356112D01*
X691856Y356189D01*
X691978Y356290D01*
X692134Y356401D01*
X692311Y356523D01*
X692511Y356645D01*
X692522D01*
X692533Y356656D01*
X692600Y356700D01*
X692711Y356756D01*
X692844Y356823D01*
X693000Y356901D01*
X693167Y356978D01*
X693333Y357056D01*
X693500Y357123D01*
Y356212D01*
X693489D01*
X693467Y356189D01*
X693422Y356178D01*
X693367Y356145D01*
X693300Y356112D01*
X693222Y356067D01*
X693033Y355956D01*
X692811Y355834D01*
X692589Y355678D01*
X692356Y355501D01*
X692122Y355312D01*
X692111Y355301D01*
X692100Y355290D01*
X692067Y355256D01*
X692022Y355223D01*
X691922Y355112D01*
X691789Y354978D01*
X691656Y354823D01*
X691511Y354645D01*
X691389Y354467D01*
X691278Y354278D01*
X690667D01*
Y362000D01*
X691611D01*
Y355990D01*
D02*
G37*
G36*
X685923Y362122D02*
X686012Y362111D01*
X686123Y362089D01*
X686245Y362067D01*
X686378Y362033D01*
X686512Y361989D01*
X686656Y361945D01*
X686801Y361878D01*
X686945Y361800D01*
X687089Y361711D01*
X687234Y361600D01*
X687367Y361478D01*
X687490Y361345D01*
X687501Y361333D01*
X687523Y361300D01*
X687556Y361245D01*
X687612Y361156D01*
X687667Y361056D01*
X687723Y360922D01*
X687801Y360767D01*
X687867Y360589D01*
X687934Y360389D01*
X688001Y360156D01*
X688067Y359900D01*
X688123Y359611D01*
X688178Y359300D01*
X688212Y358967D01*
X688234Y358600D01*
X688245Y358211D01*
Y358200D01*
Y358156D01*
Y358078D01*
Y357989D01*
X688234Y357867D01*
Y357734D01*
X688223Y357589D01*
X688212Y357423D01*
X688178Y357078D01*
X688123Y356712D01*
X688056Y356345D01*
X688012Y356178D01*
X687967Y356012D01*
Y356001D01*
X687956Y355978D01*
X687934Y355934D01*
X687912Y355878D01*
X687889Y355801D01*
X687845Y355723D01*
X687756Y355534D01*
X687645Y355334D01*
X687501Y355123D01*
X687334Y354912D01*
X687134Y354734D01*
X687123D01*
X687112Y354712D01*
X687078Y354690D01*
X687034Y354667D01*
X686978Y354623D01*
X686912Y354590D01*
X686745Y354501D01*
X686545Y354423D01*
X686312Y354345D01*
X686034Y354301D01*
X685734Y354278D01*
X685634D01*
X685512Y354290D01*
X685367Y354312D01*
X685201Y354345D01*
X685023Y354390D01*
X684834Y354445D01*
X684656Y354534D01*
X684645D01*
X684634Y354545D01*
X684579Y354578D01*
X684490Y354634D01*
X684379Y354712D01*
X684257Y354823D01*
X684123Y354945D01*
X684001Y355090D01*
X683879Y355256D01*
X683868Y355278D01*
X683823Y355334D01*
X683779Y355434D01*
X683701Y355578D01*
X683634Y355745D01*
X683545Y355934D01*
X683468Y356156D01*
X683401Y356401D01*
Y356412D01*
X683390Y356434D01*
X683379Y356467D01*
X683368Y356523D01*
X683357Y356589D01*
X683346Y356667D01*
X683323Y356767D01*
X683312Y356878D01*
X683290Y357000D01*
X683279Y357134D01*
X683268Y357289D01*
X683246Y357445D01*
X683234Y357623D01*
Y357800D01*
X683223Y358000D01*
Y358211D01*
Y358223D01*
Y358267D01*
Y358345D01*
Y358434D01*
X683234Y358556D01*
Y358689D01*
X683246Y358834D01*
X683257Y358989D01*
X683290Y359345D01*
X683346Y359711D01*
X683412Y360067D01*
X683457Y360233D01*
X683512Y360400D01*
Y360411D01*
X683523Y360434D01*
X683545Y360478D01*
X683568Y360533D01*
X683590Y360611D01*
X683634Y360689D01*
X683723Y360878D01*
X683834Y361078D01*
X683979Y361300D01*
X684145Y361500D01*
X684345Y361689D01*
X684356D01*
X684368Y361711D01*
X684401Y361733D01*
X684445Y361756D01*
X684501Y361789D01*
X684556Y361833D01*
X684723Y361911D01*
X684923Y361989D01*
X685156Y362067D01*
X685434Y362111D01*
X685734Y362133D01*
X685845D01*
X685923Y362122D01*
D02*
G37*
G36*
X679946D02*
X680035Y362111D01*
X680146Y362089D01*
X680268Y362067D01*
X680401Y362033D01*
X680535Y361989D01*
X680679Y361945D01*
X680824Y361878D01*
X680968Y361800D01*
X681112Y361711D01*
X681257Y361600D01*
X681390Y361478D01*
X681512Y361345D01*
X681523Y361333D01*
X681546Y361300D01*
X681579Y361245D01*
X681635Y361156D01*
X681690Y361056D01*
X681746Y360922D01*
X681823Y360767D01*
X681890Y360589D01*
X681957Y360389D01*
X682023Y360156D01*
X682090Y359900D01*
X682146Y359611D01*
X682201Y359300D01*
X682234Y358967D01*
X682257Y358600D01*
X682268Y358211D01*
Y358200D01*
Y358156D01*
Y358078D01*
Y357989D01*
X682257Y357867D01*
Y357734D01*
X682246Y357589D01*
X682234Y357423D01*
X682201Y357078D01*
X682146Y356712D01*
X682079Y356345D01*
X682034Y356178D01*
X681990Y356012D01*
Y356001D01*
X681979Y355978D01*
X681957Y355934D01*
X681934Y355878D01*
X681912Y355801D01*
X681868Y355723D01*
X681779Y355534D01*
X681668Y355334D01*
X681523Y355123D01*
X681357Y354912D01*
X681157Y354734D01*
X681146D01*
X681135Y354712D01*
X681101Y354690D01*
X681057Y354667D01*
X681001Y354623D01*
X680935Y354590D01*
X680768Y354501D01*
X680568Y354423D01*
X680335Y354345D01*
X680057Y354301D01*
X679757Y354278D01*
X679657D01*
X679535Y354290D01*
X679390Y354312D01*
X679224Y354345D01*
X679046Y354390D01*
X678857Y354445D01*
X678679Y354534D01*
X678668D01*
X678657Y354545D01*
X678602Y354578D01*
X678513Y354634D01*
X678402Y354712D01*
X678279Y354823D01*
X678146Y354945D01*
X678024Y355090D01*
X677902Y355256D01*
X677890Y355278D01*
X677846Y355334D01*
X677802Y355434D01*
X677724Y355578D01*
X677657Y355745D01*
X677568Y355934D01*
X677491Y356156D01*
X677424Y356401D01*
Y356412D01*
X677413Y356434D01*
X677402Y356467D01*
X677390Y356523D01*
X677379Y356589D01*
X677368Y356667D01*
X677346Y356767D01*
X677335Y356878D01*
X677313Y357000D01*
X677302Y357134D01*
X677290Y357289D01*
X677268Y357445D01*
X677257Y357623D01*
Y357800D01*
X677246Y358000D01*
Y358211D01*
Y358223D01*
Y358267D01*
Y358345D01*
Y358434D01*
X677257Y358556D01*
Y358689D01*
X677268Y358834D01*
X677279Y358989D01*
X677313Y359345D01*
X677368Y359711D01*
X677435Y360067D01*
X677479Y360233D01*
X677535Y360400D01*
Y360411D01*
X677546Y360434D01*
X677568Y360478D01*
X677591Y360533D01*
X677613Y360611D01*
X677657Y360689D01*
X677746Y360878D01*
X677857Y361078D01*
X678002Y361300D01*
X678168Y361500D01*
X678368Y361689D01*
X678379D01*
X678390Y361711D01*
X678424Y361733D01*
X678468Y361756D01*
X678524Y361789D01*
X678579Y361833D01*
X678746Y361911D01*
X678946Y361989D01*
X679179Y362067D01*
X679457Y362111D01*
X679757Y362133D01*
X679868D01*
X679946Y362122D01*
D02*
G37*
G36*
X693000Y393312D02*
X689434D01*
X689345Y393323D01*
X689245D01*
X689011Y393334D01*
X688767Y393367D01*
X688500Y393401D01*
X688256Y393456D01*
X688134Y393490D01*
X688034Y393523D01*
X688023D01*
X688012Y393534D01*
X687945Y393567D01*
X687845Y393612D01*
X687723Y393690D01*
X687589Y393790D01*
X687445Y393923D01*
X687312Y394078D01*
X687178Y394256D01*
Y394267D01*
X687167Y394279D01*
X687123Y394345D01*
X687078Y394456D01*
X687012Y394601D01*
X686956Y394767D01*
X686901Y394967D01*
X686867Y395178D01*
X686856Y395412D01*
Y395423D01*
Y395445D01*
Y395489D01*
X686867Y395545D01*
Y395623D01*
X686878Y395701D01*
X686923Y395889D01*
X686989Y396112D01*
X687078Y396345D01*
X687212Y396578D01*
X687301Y396689D01*
X687390Y396800D01*
X687401Y396812D01*
X687412Y396823D01*
X687445Y396856D01*
X687489Y396889D01*
X687545Y396934D01*
X687612Y396978D01*
X687701Y397034D01*
X687789Y397100D01*
X687900Y397156D01*
X688023Y397212D01*
X688156Y397278D01*
X688301Y397334D01*
X688467Y397378D01*
X688634Y397434D01*
X688823Y397467D01*
X689023Y397500D01*
X689000Y397512D01*
X688956Y397534D01*
X688889Y397578D01*
X688800Y397623D01*
X688600Y397745D01*
X688500Y397822D01*
X688412Y397889D01*
X688389Y397911D01*
X688334Y397967D01*
X688245Y398056D01*
X688134Y398167D01*
X688012Y398323D01*
X687867Y398489D01*
X687723Y398689D01*
X687567Y398911D01*
X686245Y401000D01*
X687512D01*
X688523Y399400D01*
Y399389D01*
X688545Y399367D01*
X688567Y399334D01*
X688600Y399289D01*
X688678Y399167D01*
X688778Y399011D01*
X688900Y398845D01*
X689023Y398667D01*
X689145Y398500D01*
X689256Y398345D01*
X689267Y398334D01*
X689300Y398289D01*
X689356Y398222D01*
X689434Y398145D01*
X689600Y397978D01*
X689689Y397900D01*
X689778Y397834D01*
X689789Y397822D01*
X689811Y397811D01*
X689856Y397789D01*
X689923Y397756D01*
X689989Y397723D01*
X690067Y397689D01*
X690245Y397634D01*
X690256D01*
X690278Y397623D01*
X690322D01*
X690378Y397611D01*
X690456Y397600D01*
X690545D01*
X690667Y397589D01*
X691978D01*
Y401000D01*
X693000D01*
Y393312D01*
D02*
G37*
G36*
X683034Y394989D02*
X683045Y395001D01*
X683101Y395045D01*
X683168Y395112D01*
X683279Y395189D01*
X683401Y395289D01*
X683557Y395401D01*
X683734Y395523D01*
X683934Y395645D01*
X683945D01*
X683956Y395656D01*
X684023Y395701D01*
X684134Y395756D01*
X684268Y395823D01*
X684423Y395901D01*
X684590Y395978D01*
X684756Y396056D01*
X684923Y396123D01*
Y395212D01*
X684912D01*
X684890Y395189D01*
X684845Y395178D01*
X684790Y395145D01*
X684723Y395112D01*
X684645Y395067D01*
X684456Y394956D01*
X684234Y394834D01*
X684012Y394678D01*
X683779Y394501D01*
X683545Y394312D01*
X683534Y394301D01*
X683523Y394290D01*
X683490Y394256D01*
X683445Y394223D01*
X683345Y394112D01*
X683212Y393979D01*
X683079Y393823D01*
X682934Y393645D01*
X682812Y393467D01*
X682701Y393279D01*
X682090D01*
Y401000D01*
X683034D01*
Y394989D01*
D02*
G37*
G36*
X677057D02*
X677068Y395001D01*
X677124Y395045D01*
X677190Y395112D01*
X677302Y395189D01*
X677424Y395289D01*
X677579Y395401D01*
X677757Y395523D01*
X677957Y395645D01*
X677968D01*
X677979Y395656D01*
X678046Y395701D01*
X678157Y395756D01*
X678290Y395823D01*
X678446Y395901D01*
X678613Y395978D01*
X678779Y396056D01*
X678946Y396123D01*
Y395212D01*
X678935D01*
X678912Y395189D01*
X678868Y395178D01*
X678813Y395145D01*
X678746Y395112D01*
X678668Y395067D01*
X678479Y394956D01*
X678257Y394834D01*
X678035Y394678D01*
X677802Y394501D01*
X677568Y394312D01*
X677557Y394301D01*
X677546Y394290D01*
X677513Y394256D01*
X677468Y394223D01*
X677368Y394112D01*
X677235Y393979D01*
X677102Y393823D01*
X676957Y393645D01*
X676835Y393467D01*
X676724Y393279D01*
X676113D01*
Y401000D01*
X677057D01*
Y394989D01*
D02*
G37*
%LPC*%
G36*
X685734Y361356D02*
X685668D01*
X685623Y361345D01*
X685512Y361322D01*
X685356Y361278D01*
X685190Y361200D01*
X685001Y361089D01*
X684912Y361022D01*
X684823Y360933D01*
X684734Y360845D01*
X684645Y360734D01*
Y360722D01*
X684623Y360700D01*
X684601Y360667D01*
X684579Y360611D01*
X684534Y360533D01*
X684501Y360434D01*
X684456Y360322D01*
X684412Y360189D01*
X684379Y360022D01*
X684334Y359845D01*
X684290Y359634D01*
X684257Y359411D01*
X684234Y359145D01*
X684212Y358867D01*
X684190Y358556D01*
Y358211D01*
Y358200D01*
Y358189D01*
Y358134D01*
Y358034D01*
X684201Y357900D01*
Y357756D01*
X684212Y357578D01*
X684223Y357389D01*
X684245Y357178D01*
X684301Y356756D01*
X684334Y356545D01*
X684379Y356345D01*
X684423Y356156D01*
X684490Y355978D01*
X684556Y355823D01*
X684634Y355690D01*
Y355678D01*
X684656Y355667D01*
X684679Y355634D01*
X684712Y355590D01*
X684812Y355489D01*
X684934Y355367D01*
X685101Y355256D01*
X685290Y355156D01*
X685390Y355112D01*
X685501Y355079D01*
X685623Y355067D01*
X685745Y355056D01*
X685812D01*
X685856Y355067D01*
X685979Y355090D01*
X686123Y355123D01*
X686290Y355190D01*
X686467Y355290D01*
X686556Y355356D01*
X686645Y355423D01*
X686723Y355512D01*
X686801Y355612D01*
Y355623D01*
X686823Y355645D01*
X686845Y355690D01*
X686878Y355745D01*
X686912Y355834D01*
X686956Y355934D01*
X686989Y356056D01*
X687034Y356201D01*
X687078Y356367D01*
X687123Y356556D01*
X687167Y356767D01*
X687201Y357000D01*
X687234Y357267D01*
X687256Y357556D01*
X687267Y357867D01*
X687278Y358211D01*
Y358234D01*
Y358289D01*
Y358389D01*
X687267Y358523D01*
Y358667D01*
X687256Y358845D01*
X687245Y359034D01*
X687223Y359234D01*
X687167Y359667D01*
X687134Y359878D01*
X687089Y360078D01*
X687045Y360267D01*
X686978Y360445D01*
X686912Y360600D01*
X686834Y360734D01*
Y360745D01*
X686812Y360756D01*
X686756Y360833D01*
X686656Y360933D01*
X686534Y361045D01*
X686367Y361156D01*
X686178Y361256D01*
X685967Y361333D01*
X685856Y361345D01*
X685734Y361356D01*
D02*
G37*
G36*
X679757D02*
X679690D01*
X679646Y361345D01*
X679535Y361322D01*
X679379Y361278D01*
X679213Y361200D01*
X679024Y361089D01*
X678935Y361022D01*
X678846Y360933D01*
X678757Y360845D01*
X678668Y360734D01*
Y360722D01*
X678646Y360700D01*
X678624Y360667D01*
X678602Y360611D01*
X678557Y360533D01*
X678524Y360434D01*
X678479Y360322D01*
X678435Y360189D01*
X678402Y360022D01*
X678357Y359845D01*
X678313Y359634D01*
X678279Y359411D01*
X678257Y359145D01*
X678235Y358867D01*
X678213Y358556D01*
Y358211D01*
Y358200D01*
Y358189D01*
Y358134D01*
Y358034D01*
X678224Y357900D01*
Y357756D01*
X678235Y357578D01*
X678246Y357389D01*
X678268Y357178D01*
X678324Y356756D01*
X678357Y356545D01*
X678402Y356345D01*
X678446Y356156D01*
X678513Y355978D01*
X678579Y355823D01*
X678657Y355690D01*
Y355678D01*
X678679Y355667D01*
X678701Y355634D01*
X678735Y355590D01*
X678835Y355489D01*
X678957Y355367D01*
X679124Y355256D01*
X679313Y355156D01*
X679413Y355112D01*
X679524Y355079D01*
X679646Y355067D01*
X679768Y355056D01*
X679835D01*
X679879Y355067D01*
X680001Y355090D01*
X680146Y355123D01*
X680312Y355190D01*
X680490Y355290D01*
X680579Y355356D01*
X680668Y355423D01*
X680746Y355512D01*
X680824Y355612D01*
Y355623D01*
X680846Y355645D01*
X680868Y355690D01*
X680901Y355745D01*
X680935Y355834D01*
X680979Y355934D01*
X681012Y356056D01*
X681057Y356201D01*
X681101Y356367D01*
X681146Y356556D01*
X681190Y356767D01*
X681223Y357000D01*
X681257Y357267D01*
X681279Y357556D01*
X681290Y357867D01*
X681301Y358211D01*
Y358234D01*
Y358289D01*
Y358389D01*
X681290Y358523D01*
Y358667D01*
X681279Y358845D01*
X681268Y359034D01*
X681246Y359234D01*
X681190Y359667D01*
X681157Y359878D01*
X681112Y360078D01*
X681068Y360267D01*
X681001Y360445D01*
X680935Y360600D01*
X680857Y360734D01*
Y360745D01*
X680835Y360756D01*
X680779Y360833D01*
X680679Y360933D01*
X680557Y361045D01*
X680390Y361156D01*
X680201Y361256D01*
X679990Y361333D01*
X679879Y361345D01*
X679757Y361356D01*
D02*
G37*
G36*
X691978Y396711D02*
X689689D01*
X689556Y396700D01*
X689400Y396689D01*
X689223Y396678D01*
X689045Y396656D01*
X688867Y396623D01*
X688712Y396578D01*
X688689Y396567D01*
X688645Y396545D01*
X688578Y396512D01*
X688489Y396467D01*
X688389Y396400D01*
X688289Y396323D01*
X688189Y396223D01*
X688112Y396112D01*
X688100Y396100D01*
X688078Y396056D01*
X688045Y395989D01*
X688000Y395901D01*
X687967Y395800D01*
X687934Y395689D01*
X687912Y395556D01*
X687900Y395423D01*
Y395412D01*
Y395401D01*
X687912Y395334D01*
X687923Y395234D01*
X687945Y395101D01*
X688000Y394967D01*
X688067Y394812D01*
X688167Y394667D01*
X688301Y394523D01*
X688323Y394512D01*
X688378Y394467D01*
X688467Y394412D01*
X688612Y394345D01*
X688778Y394279D01*
X689000Y394223D01*
X689256Y394179D01*
X689556Y394167D01*
X691978D01*
Y396711D01*
D02*
G37*
%LPD*%
M02*
