G04*
G04 #@! TF.GenerationSoftware,Altium Limited,CircuitMaker,2.2.1 (2.2.1.6)*
G04*
G04 Layer_Color=15314666*
%FSLAX25Y25*%
%MOIN*%
G70*
G04*
G04 #@! TF.SameCoordinates,4B569A1E-B195-418F-9F09-93343C68B421*
G04*
G04*
G04 #@! TF.FilePolarity,Positive*
G04*
G01*
G75*
%ADD13C,0.00800*%
%ADD16C,0.01000*%
%ADD18C,0.00500*%
%ADD19C,0.00394*%
%ADD49C,0.00197*%
D13*
X599000Y371500D02*
Y386500D01*
X591500Y379000D02*
X606500D01*
X590500Y412500D02*
X695000D01*
Y345500D02*
Y412500D01*
X590500Y345500D02*
X695000D01*
X590500D02*
Y412500D01*
D16*
X443000Y266000D02*
Y276000D01*
X493000D01*
Y266000D02*
Y276000D01*
X443000Y266000D02*
X493000D01*
X311500D02*
X361500D01*
Y276000D01*
X311500D02*
X361500D01*
X311500Y266000D02*
Y276000D01*
D18*
X551500Y455500D02*
X556500D01*
X554000Y453000D02*
Y458000D01*
D19*
X268000Y246332D02*
Y250269D01*
X266032Y248300D02*
X269969D01*
X509031Y454500D02*
X512968D01*
X511000Y452531D02*
Y456468D01*
X244032Y458500D02*
X247969D01*
X246000Y456531D02*
Y460468D01*
X193500Y457031D02*
Y460968D01*
X191532Y459000D02*
X195468D01*
D49*
X247500Y201000D02*
X288500D01*
X247500D02*
Y253200D01*
X288500Y201000D02*
Y253200D01*
X247500D02*
X288500D01*
X505350Y444854D02*
Y464146D01*
Y444854D02*
X520646D01*
X505350Y464146D02*
X520646D01*
Y444854D02*
Y464146D01*
X236354Y468146D02*
X255646D01*
X236354Y452850D02*
Y468146D01*
X255646Y452850D02*
Y468146D01*
X236354Y452850D02*
X255646D01*
X183854Y453350D02*
X203146D01*
Y468646D01*
X183854Y453350D02*
Y468646D01*
X203146D01*
M02*
