G04*
G04 #@! TF.GenerationSoftware,Altium Limited,CircuitMaker,2.2.1 (2.2.1.6)*
G04*
G04 Layer_Physical_Order=2*
G04 Layer_Color=11436288*
%FSLAX25Y25*%
%MOIN*%
G70*
G04*
G04 #@! TF.SameCoordinates,4B569A1E-B195-418F-9F09-93343C68B421*
G04*
G04*
G04 #@! TF.FilePolarity,Positive*
G04*
G01*
G75*
%ADD32C,0.05000*%
%ADD34C,0.07500*%
%ADD35C,0.09842*%
%ADD36C,0.07874*%
%ADD37O,0.11811X0.07874*%
%ADD38O,0.11811X0.07874*%
%ADD39C,0.11811*%
%ADD40O,0.11811X0.03937*%
%ADD41R,0.07874X0.07874*%
%ADD42R,0.07874X0.07874*%
%ADD43O,0.11811X0.07087*%
%ADD44R,0.09842X0.09842*%
%ADD45C,0.05905*%
%ADD46C,0.03937*%
%ADD47C,0.08000*%
G36*
X303252Y492126D02*
X301651Y490525D01*
X301579Y490453D01*
X298864Y485058D01*
X294455Y483937D01*
X294396Y483878D01*
X291563Y481045D01*
Y479500D01*
X296500D01*
Y478500D01*
X291563D01*
Y476955D01*
X294396Y474122D01*
X294455Y474063D01*
X298864Y472942D01*
X301579Y467547D01*
X301651Y467475D01*
X304029Y465097D01*
X303926Y457052D01*
X300458Y453735D01*
X300321Y453679D01*
X298642Y451999D01*
X298642Y451999D01*
X295438Y448796D01*
X293821Y447179D01*
X293448Y446277D01*
X292712Y444500D01*
Y443648D01*
X292712Y443648D01*
Y442213D01*
X292712Y435775D01*
Y402726D01*
X292712Y396287D01*
Y394851D01*
X292712Y394851D01*
Y394000D01*
X293821Y391321D01*
X294423Y390719D01*
X294423Y390719D01*
X295438Y389704D01*
X299991Y385151D01*
X315480Y369662D01*
X314998Y368498D01*
X309453Y362921D01*
X304547Y362921D01*
X301079Y359453D01*
Y354547D01*
X303687Y351939D01*
X304166Y347750D01*
X303687Y343561D01*
X301079Y340953D01*
Y336047D01*
X294969Y331788D01*
X279031D01*
X277350Y332961D01*
X276269Y340017D01*
X276281Y341423D01*
X277296Y342438D01*
X280577Y345719D01*
X281179Y346321D01*
X281514Y347130D01*
X282288Y349000D01*
Y349851D01*
X282288Y349851D01*
Y351287D01*
X282288Y357726D01*
Y364275D01*
X282288Y370713D01*
Y372148D01*
X282288Y372148D01*
Y373000D01*
X281179Y375679D01*
X280577Y376281D01*
X280577Y376281D01*
X279562Y377296D01*
X275179Y381679D01*
X270796Y386062D01*
X269781Y387077D01*
X269781Y387077D01*
X269179Y387679D01*
X266500Y388788D01*
X265649D01*
X265649Y388788D01*
X264213D01*
X257774Y388788D01*
X223225D01*
X216787Y388788D01*
X215352D01*
X215352Y388788D01*
X214500D01*
X211821Y387679D01*
X211219Y387077D01*
X211219Y387077D01*
X210204Y386062D01*
X205651Y381509D01*
X201938Y377796D01*
X201062Y376920D01*
X199089Y375450D01*
X199089Y375450D01*
X199089Y375450D01*
X198071Y374848D01*
X197458Y374640D01*
X198071Y374848D01*
X196926Y374555D01*
X196050Y374415D01*
X198071Y374848D01*
X198705Y375222D01*
X195670Y374355D01*
X191105Y373627D01*
X189880Y373498D01*
X185113Y375926D01*
X180960Y378947D01*
X180474Y379384D01*
X180179Y379679D01*
X177500Y380788D01*
X177500Y380788D01*
X176649Y380788D01*
X176648Y380788D01*
X173181Y380788D01*
X170384D01*
X167351Y380788D01*
X167351Y380788D01*
X166500Y380788D01*
X166500Y380788D01*
X163821Y379679D01*
X163219Y379077D01*
X162204Y378062D01*
X159246Y375104D01*
X157423Y373281D01*
X157423Y373281D01*
X156821Y372679D01*
X155712Y370000D01*
Y369148D01*
X155712Y369148D01*
Y367713D01*
X155712Y361275D01*
X155712Y356384D01*
X155712Y354787D01*
X155712Y354787D01*
X155712Y353351D01*
X155712Y353351D01*
X155712Y352500D01*
X155712Y352500D01*
X156821Y349821D01*
X157423Y349219D01*
X158704Y341876D01*
X157219Y338288D01*
X143569D01*
X138421Y343436D01*
X138421Y343734D01*
Y346453D01*
X135788Y351000D01*
X138921Y355047D01*
X138921Y359953D01*
X135453Y363421D01*
X132484Y363421D01*
X130547D01*
X127961Y361288D01*
X120908Y363272D01*
X120396Y363499D01*
X118288Y365282D01*
Y418272D01*
Y418431D01*
X132436Y432579D01*
X132734Y432579D01*
X135453D01*
X138921Y436047D01*
Y440953D01*
X135887Y445000D01*
X138921Y449047D01*
Y453953D01*
X135453Y457421D01*
X130547Y457421D01*
X127327Y454587D01*
X124596Y453121D01*
X122321Y452179D01*
X122321Y452179D01*
X121719Y451577D01*
X121719Y451577D01*
X120704Y450562D01*
X116151Y446009D01*
X107874Y437732D01*
X100000Y440993D01*
Y500000D01*
X251327D01*
X255333Y492126D01*
X255088Y491788D01*
X250726D01*
X244086Y491788D01*
X242851D01*
X242851Y491788D01*
X242000D01*
X239321Y490679D01*
X238719Y490077D01*
X238719Y490077D01*
X237900Y489258D01*
X233151Y484509D01*
X219931Y471288D01*
X205726D01*
X198966Y471288D01*
X197852D01*
X197851Y471288D01*
X197000D01*
X194321Y470179D01*
X192678Y468666D01*
X191863Y467953D01*
X191392Y467482D01*
X191392Y467482D01*
X190135Y466225D01*
X182649Y465288D01*
X167851D01*
X167851Y465288D01*
X167000D01*
X164321Y464179D01*
X163719Y463577D01*
X163719Y463577D01*
X162704Y462562D01*
X158151Y458009D01*
X157491Y457349D01*
X152938Y452796D01*
X151923Y451781D01*
X151923Y451781D01*
X151321Y451179D01*
X150212Y448500D01*
Y447648D01*
X150212Y447648D01*
Y446213D01*
X150212Y439775D01*
Y430226D01*
X150212Y423787D01*
Y422352D01*
X150212Y422352D01*
Y421500D01*
X151321Y418821D01*
X151923Y418219D01*
X151923Y418219D01*
X152938Y417204D01*
X156571Y413571D01*
X160204Y409938D01*
X161219Y408923D01*
X161219Y408923D01*
X161821Y408321D01*
X164500Y407212D01*
X165351D01*
X165351Y407212D01*
X166787D01*
X173225Y407212D01*
X174275D01*
X180713Y407212D01*
X182149D01*
X182149Y407212D01*
X183000D01*
X185679Y408321D01*
X186281Y408923D01*
X186281Y408923D01*
X187296Y409938D01*
X191849Y414491D01*
X192789Y415431D01*
X198334Y417191D01*
X202894Y415248D01*
X207704Y410438D01*
X208719Y409423D01*
X208719Y409423D01*
X209321Y408821D01*
X212000Y407712D01*
X212852Y407712D01*
X218032D01*
Y407712D01*
X220725Y407712D01*
X267500D01*
X270179Y408821D01*
X280679Y419321D01*
X281788Y422000D01*
Y446000D01*
X280679Y448679D01*
X276179Y453179D01*
X273500Y454288D01*
X272086D01*
X270106Y456268D01*
X269999Y461699D01*
X270313Y464439D01*
X273421Y467547D01*
Y472453D01*
X271166Y474708D01*
X270460Y479000D01*
X271166Y483292D01*
X273421Y485547D01*
Y490453D01*
X271748Y492126D01*
X274287Y500000D01*
X300713D01*
X303252Y492126D01*
D02*
G37*
G36*
X260621Y478955D02*
X257482Y473788D01*
X253351Y473788D01*
X253351Y473788D01*
X252500D01*
X249821Y472679D01*
X249528Y472385D01*
X247299Y470248D01*
X244363Y467453D01*
X243892Y466982D01*
X243892Y466982D01*
X242055Y465145D01*
X239363Y462453D01*
X238324Y461414D01*
X237047Y460137D01*
Y457019D01*
X237047Y457019D01*
Y456863D01*
X231440Y451391D01*
X229338Y450520D01*
X227679Y452179D01*
X225000Y453288D01*
X214954D01*
X207750Y460794D01*
X207924Y463162D01*
X209115Y463712D01*
X212774D01*
X219534Y463712D01*
X220649D01*
X220649Y463712D01*
X221500D01*
X224179Y464821D01*
X224781Y465423D01*
X224781Y465423D01*
X225600Y466242D01*
X230349Y470991D01*
X243569Y484212D01*
X257407D01*
X260621Y478955D01*
D02*
G37*
G36*
X325660Y347134D02*
X325573Y344183D01*
X323531Y342288D01*
X315122D01*
X311691Y347167D01*
X315537Y354212D01*
X318800D01*
X325660Y347134D01*
D02*
G37*
G36*
X700000Y100000D02*
X100000D01*
Y315007D01*
X107874Y318268D01*
X116151Y309991D01*
X120704Y305438D01*
X121719Y304423D01*
X121719Y304423D01*
X122321Y303821D01*
X125000Y302712D01*
X125851D01*
X125852Y302712D01*
X127213D01*
X133726Y302712D01*
X242931D01*
X244151Y301491D01*
X247575Y298068D01*
X249109Y296534D01*
X249109Y296534D01*
X249719Y295923D01*
X249719Y295923D01*
X250321Y295321D01*
X250321Y295321D01*
X253000Y294212D01*
X253852Y294212D01*
X261725Y294212D01*
X323738D01*
X329688Y288000D01*
X331253Y284221D01*
X327812Y277374D01*
X325969Y275937D01*
X317000D01*
Y271000D01*
X316500D01*
Y270500D01*
X311563D01*
Y268955D01*
X313556Y266962D01*
X312284Y259088D01*
X279929D01*
X279929Y259088D01*
Y259088D01*
X273817Y263341D01*
X260149Y277009D01*
X256725Y280432D01*
X255433Y281725D01*
X255433Y281725D01*
X254581Y282577D01*
X254581Y282577D01*
X253979Y283179D01*
X253979Y283179D01*
X251300Y284288D01*
X250448Y284288D01*
X243107Y284621D01*
X237781Y289577D01*
X237781Y289577D01*
X237179Y290179D01*
X234500Y291288D01*
X234500Y291288D01*
X233649Y291288D01*
X233648Y291288D01*
X232213Y291288D01*
X232213Y291288D01*
X230616Y291288D01*
X170726D01*
X164287Y291288D01*
X162852D01*
X162851Y291288D01*
X162000D01*
X159321Y290179D01*
X158719Y289577D01*
X158719Y289577D01*
X157704Y288562D01*
X153151Y284009D01*
X139491Y270349D01*
X134938Y265796D01*
X133923Y264781D01*
X133923Y264781D01*
X133321Y264179D01*
X132212Y261500D01*
Y260648D01*
X132212Y260648D01*
Y259509D01*
X132212Y252775D01*
Y248086D01*
X132001Y247875D01*
X130079Y245953D01*
Y243441D01*
X130079Y243436D01*
X129102Y242460D01*
X120491Y233849D01*
X115936Y229294D01*
X114923Y228281D01*
X114923Y228281D01*
X114321Y227679D01*
X113212Y225000D01*
Y224149D01*
X113212Y224149D01*
Y222713D01*
X113212Y216274D01*
Y155226D01*
X113212Y148787D01*
Y147352D01*
X113212Y147351D01*
Y146500D01*
X114321Y143821D01*
X114923Y143219D01*
X114923Y143219D01*
X115779Y142363D01*
X120491Y137651D01*
X127068Y131074D01*
X128814Y129329D01*
X133616Y124526D01*
X134165Y123978D01*
X138221Y117783D01*
X138221Y117783D01*
X138221Y117783D01*
X149500D01*
X150063Y117783D01*
X157937Y119252D01*
X159406Y117783D01*
X164311D01*
X167690Y121163D01*
X167780Y121252D01*
X167846Y121278D01*
X175721Y117783D01*
Y117783D01*
X187000D01*
X187563Y117783D01*
X195437Y119252D01*
X196906Y117783D01*
X201811D01*
X203180Y119153D01*
X205279Y121252D01*
Y126157D01*
X203910Y127527D01*
X201811Y129626D01*
X196906D01*
X195437Y128157D01*
X187563Y129626D01*
X187000Y129626D01*
X181375D01*
X181078Y129626D01*
X180504Y130200D01*
Y130200D01*
X175822Y134882D01*
X175777Y143863D01*
X176198Y144764D01*
X176638Y145073D01*
X179189Y143374D01*
X180936Y143374D01*
X184094D01*
X185908Y145188D01*
X186149Y145428D01*
X190500Y146273D01*
X194851Y145428D01*
X196906Y143374D01*
X198858D01*
Y149295D01*
Y155217D01*
X196906D01*
X195092Y153403D01*
X194851Y153162D01*
X190500Y152318D01*
X186149Y153162D01*
X185938Y153373D01*
X184094Y155217D01*
X179189D01*
X175721Y151748D01*
X175509Y148488D01*
X167780Y151748D01*
X164311Y155217D01*
X162358D01*
Y149295D01*
X161358D01*
Y155217D01*
X159406D01*
X157351Y153162D01*
X153000Y152318D01*
X148649Y153162D01*
X146594Y155217D01*
X141689D01*
X140483Y154010D01*
X138221Y151748D01*
X130716Y152641D01*
X129788Y153569D01*
Y153728D01*
Y191262D01*
X133547Y197579D01*
X138453Y197579D01*
X140586Y199712D01*
X146414D01*
X148547Y197579D01*
X153086D01*
X158194Y191971D01*
X158394Y191751D01*
X153673Y187030D01*
X152579Y185937D01*
X150955Y185937D01*
X150955Y185937D01*
X148063Y183045D01*
X148063Y180010D01*
X148063Y180010D01*
X148063Y179261D01*
Y176000D01*
Y173045D01*
Y171500D01*
X157937D01*
Y173045D01*
X158161Y180313D01*
X158335Y180557D01*
X158335Y180557D01*
X159375Y182017D01*
X164259Y186901D01*
Y186901D01*
X164259Y186901D01*
X164259D01*
X170139Y191714D01*
X170581Y191915D01*
X178821Y187821D01*
X179423Y187219D01*
X184799Y181572D01*
X185338Y180813D01*
X185563Y173545D01*
Y172000D01*
X195437D01*
Y172490D01*
X195437Y172490D01*
X195437Y173239D01*
Y176500D01*
Y179455D01*
Y181070D01*
X202755Y184888D01*
X206075Y181568D01*
X207204Y180438D01*
X207204Y180438D01*
X208219Y179423D01*
X208219Y179423D01*
X208821Y178821D01*
X208821Y178821D01*
X211500Y177712D01*
X212351Y177712D01*
X219500Y175960D01*
X223063Y173545D01*
Y172000D01*
X232937D01*
Y172490D01*
X232937Y172490D01*
X232937Y173239D01*
Y176500D01*
Y180437D01*
X234376Y184520D01*
X239085Y187712D01*
X253931D01*
X259125Y182517D01*
X260338Y180813D01*
X260563Y173545D01*
Y172000D01*
X270437D01*
Y172490D01*
X270437Y172490D01*
X270437Y173239D01*
Y176500D01*
Y180486D01*
X276414Y187151D01*
X281656Y186872D01*
X283579Y182453D01*
Y177547D01*
X287047Y174079D01*
X291953Y174079D01*
X293481Y175124D01*
X299171Y175183D01*
X302204Y174422D01*
X302547Y174079D01*
X302847Y166205D01*
X292991Y156349D01*
X288282Y151640D01*
X287423Y150781D01*
X280067Y152032D01*
X279279Y152248D01*
X275811Y155717D01*
X270906D01*
X268851Y153662D01*
X264500Y152818D01*
X260149Y153662D01*
X258094Y155717D01*
X256142D01*
Y149795D01*
X255142D01*
Y155717D01*
X253189D01*
X251090Y153617D01*
X250234Y152761D01*
X247193Y152348D01*
X244310Y152462D01*
X241973Y152554D01*
X239311Y155217D01*
X234406D01*
X232592Y153403D01*
X232351Y153162D01*
X228000Y152318D01*
X223649Y153162D01*
X223439Y153373D01*
X221594Y155217D01*
X219642D01*
Y149295D01*
Y143374D01*
X221594D01*
X223408Y145188D01*
X223649Y145428D01*
X228000Y146273D01*
X232351Y145428D01*
X232562Y145218D01*
X234406Y143374D01*
X239311D01*
X240583Y142596D01*
X241547Y134584D01*
X241211Y134069D01*
X237929Y130787D01*
X236914Y129772D01*
X235545Y129692D01*
X234406Y129626D01*
X234203Y129423D01*
X229439Y128810D01*
X225063Y129626D01*
X224500Y129626D01*
X213221D01*
Y117783D01*
X224500D01*
X225063Y117783D01*
X232937Y119252D01*
X234406Y117783D01*
X239311D01*
X241846Y120319D01*
X249721Y118999D01*
Y118283D01*
X261000D01*
X261563Y118283D01*
X269437Y119752D01*
X270906Y118283D01*
X275811D01*
X277944Y120416D01*
X285979D01*
X292662Y120416D01*
X293853D01*
X293853Y120416D01*
X294705D01*
X297383Y121526D01*
X297986Y122128D01*
X297986Y122128D01*
X299001Y123143D01*
X303553Y127696D01*
X306749Y130892D01*
X306749Y130892D01*
X307679Y131821D01*
X308473Y133738D01*
X310561Y137187D01*
X310921Y137547D01*
Y142453D01*
X308999Y144375D01*
X308788Y144586D01*
Y145931D01*
X321509Y158651D01*
X326262Y163405D01*
X327077Y164219D01*
X327077Y164219D01*
X327679Y164821D01*
X328788Y167500D01*
Y168351D01*
X328788Y168351D01*
Y169787D01*
X328788Y176225D01*
Y208375D01*
X328788Y214813D01*
Y216248D01*
X334653Y221099D01*
X335257Y221512D01*
X362575D01*
X369216Y221512D01*
X370448D01*
X370448Y221512D01*
X371300D01*
X373979Y222621D01*
X374581Y223223D01*
X374581Y223223D01*
X375596Y224238D01*
X380149Y228791D01*
X391509Y240151D01*
X396062Y244704D01*
X397077Y245719D01*
X397077Y245719D01*
X397679Y246321D01*
X398788Y249000D01*
Y249851D01*
X398788Y249851D01*
Y251287D01*
X398788Y257726D01*
Y408775D01*
X398788Y415213D01*
Y416648D01*
X398788Y416648D01*
Y417500D01*
X397679Y420179D01*
X397077Y420781D01*
X397077Y420781D01*
X396062Y421796D01*
X391509Y426349D01*
X383349Y434509D01*
X379925Y437932D01*
X378796Y439062D01*
X378796Y439062D01*
X377781Y440077D01*
X377781Y440077D01*
X377179Y440679D01*
X377179Y440679D01*
X374500Y441788D01*
X373649Y441788D01*
X367247Y445342D01*
X364701Y448000D01*
X364241Y449110D01*
X363261Y451477D01*
Y454523D01*
X364241Y456890D01*
X364701Y458000D01*
X364241Y459110D01*
X363261Y461477D01*
Y464243D01*
X363261Y464523D01*
X364701Y468000D01*
X363261Y471477D01*
X359784Y472918D01*
X359784Y472918D01*
X359331Y472918D01*
X355059D01*
X352333Y471788D01*
X342724Y471788D01*
X341398Y472337D01*
X338199Y474815D01*
X335494Y479991D01*
X335437Y481045D01*
X335264Y481218D01*
X332545Y483937D01*
X331000D01*
Y479000D01*
X330000D01*
Y483937D01*
X328455D01*
X325563Y481045D01*
X318311Y482547D01*
X313421Y487436D01*
X313421Y487734D01*
Y490453D01*
X311748Y492126D01*
X314287Y500000D01*
X700000D01*
Y100000D01*
D02*
G37*
%LPC*%
G36*
X542649Y489788D02*
X530732Y489788D01*
X500726D01*
X494287Y489788D01*
X492851D01*
X492851Y489788D01*
X492000D01*
X489321Y488679D01*
X488991Y488349D01*
X488719Y488077D01*
X486168Y485526D01*
X483423Y482781D01*
X483423Y482781D01*
X483151Y482509D01*
X483151Y482509D01*
X482821Y482179D01*
X482821Y482179D01*
X481712Y479500D01*
X481712Y478649D01*
X479268Y475571D01*
X476306Y472483D01*
X473505Y472086D01*
X473505Y472086D01*
X470469Y473344D01*
X466532Y473344D01*
X462776Y471788D01*
X452667Y471788D01*
X449941Y472918D01*
X445669Y472918D01*
X445217Y472918D01*
X445217Y472918D01*
X441739Y471477D01*
X440299Y468000D01*
X440649Y467155D01*
X441739Y464523D01*
Y464243D01*
Y461477D01*
X440759Y459110D01*
X440299Y458000D01*
X440759Y456890D01*
X441739Y454523D01*
Y451477D01*
X440759Y449110D01*
X440299Y448000D01*
X440759Y446890D01*
X441739Y444523D01*
Y441477D01*
X440759Y439110D01*
X440299Y438000D01*
X440759Y436890D01*
X441739Y434523D01*
Y431477D01*
X440299Y428000D01*
X441075Y423000D01*
X440377Y418500D01*
X447579D01*
Y417500D01*
X440377D01*
X441075Y413000D01*
X440299Y408000D01*
X440941Y406449D01*
X441739Y404523D01*
Y401477D01*
X440759Y399110D01*
X440299Y398000D01*
X440759Y396890D01*
X441739Y394523D01*
Y391477D01*
X440759Y389110D01*
X440299Y388000D01*
X440759Y386890D01*
X441739Y384523D01*
Y381477D01*
X440759Y379110D01*
X440299Y378000D01*
X440759Y376890D01*
X441739Y374523D01*
Y371477D01*
X440759Y369110D01*
X440299Y368000D01*
X440759Y366890D01*
X441739Y364523D01*
Y361477D01*
X440759Y359110D01*
X440299Y358000D01*
X440759Y356890D01*
X441739Y354523D01*
Y351477D01*
X440759Y349110D01*
X440299Y348000D01*
X440759Y346890D01*
X441739Y344523D01*
Y341477D01*
X440759Y339110D01*
X440299Y338000D01*
X440759Y336890D01*
X441739Y334523D01*
Y331477D01*
X440759Y329110D01*
X440299Y328000D01*
X440759Y326890D01*
X441739Y324523D01*
Y321477D01*
X440759Y319110D01*
X440299Y318000D01*
X440759Y316890D01*
X441739Y314523D01*
Y311477D01*
X440759Y309110D01*
X440299Y308000D01*
X440759Y306890D01*
X441739Y304523D01*
Y301477D01*
X440299Y298000D01*
X434634Y292086D01*
X434349Y291788D01*
X429733D01*
X426852D01*
D01*
X426852D01*
X426852Y291788D01*
X426000D01*
X423321Y290679D01*
X422719Y290077D01*
X422719Y290077D01*
X422719Y290077D01*
X422719D01*
X420519Y287877D01*
X413623Y280981D01*
X411423Y278781D01*
Y278781D01*
X411423Y278781D01*
X411423Y278781D01*
X410821Y278179D01*
X409712Y275500D01*
Y274648D01*
X409712Y274648D01*
Y274648D01*
D01*
Y271577D01*
Y243044D01*
Y240981D01*
X409712Y240069D01*
X407642Y238000D01*
X398695Y229053D01*
X397762Y228119D01*
X397762Y228119D01*
X397743Y228100D01*
X397743Y228100D01*
X393400Y223758D01*
Y223758D01*
X393400Y223758D01*
Y223758D01*
X392386Y222744D01*
X380025Y210382D01*
X377931Y208288D01*
X374160Y208288D01*
X373169Y208347D01*
Y208347D01*
X372405Y208392D01*
Y208392D01*
X372092Y208411D01*
Y208411D01*
X366479Y208743D01*
X366467Y208750D01*
X366467Y208750D01*
X366467Y208750D01*
X363407D01*
X363403Y208750D01*
X360216Y208750D01*
X359500Y208750D01*
X358808Y208750D01*
X356468Y208750D01*
X356462Y208750D01*
X352533D01*
X352533Y208750D01*
X352533Y208750D01*
X345352Y208800D01*
X344677Y208805D01*
X344045Y209437D01*
X339955D01*
X337063Y206545D01*
Y202455D01*
X339955Y199563D01*
X344045Y199563D01*
X344475Y199863D01*
X344976Y200212D01*
X345047Y200212D01*
X352526Y199257D01*
X352533Y199250D01*
X352533Y199250D01*
X355592D01*
X355597Y199250D01*
X358771Y199250D01*
X359500Y199250D01*
X360192Y199250D01*
X362532Y199250D01*
X362538Y199250D01*
X366467D01*
X366467Y199250D01*
X366474Y199257D01*
X372640Y200490D01*
Y200490D01*
X373746Y200712D01*
X378648D01*
D01*
X378648D01*
X378648Y200712D01*
X379500D01*
X382179Y201821D01*
X382781Y202423D01*
X382781Y202423D01*
X382781Y202423D01*
Y202423D01*
X384875Y204517D01*
X398127Y217769D01*
X398255Y217888D01*
X398556Y217586D01*
X412066Y204076D01*
X414219Y201923D01*
X414219D01*
X414219Y201923D01*
X414219Y201923D01*
X414821Y201321D01*
X417500Y200212D01*
X418352D01*
X418352Y200212D01*
X418352D01*
Y200212D01*
X420644D01*
X450367D01*
X457212Y192338D01*
X457212Y189851D01*
X457212Y189851D01*
Y189000D01*
X458321Y186321D01*
X458923Y185719D01*
X458923Y185719D01*
X459938Y184704D01*
X462894Y181748D01*
D01*
X464466Y180176D01*
X473989Y170653D01*
X476219Y168423D01*
X476219D01*
X476219Y168423D01*
X476219Y168423D01*
X476821Y167821D01*
X479500Y166712D01*
X480351D01*
X480351Y166712D01*
X480352D01*
D01*
X483360D01*
X493806D01*
X494955Y165563D01*
X499045D01*
X501937Y168455D01*
Y172545D01*
X499045Y175437D01*
X494955D01*
X494017Y174499D01*
X493806Y174288D01*
X483951D01*
X481069Y174288D01*
X478839Y176518D01*
X470331Y185026D01*
X468759Y186599D01*
X468916Y186862D01*
X472930Y193563D01*
X475045D01*
X477937Y196455D01*
X478451Y197172D01*
X486728Y198369D01*
X487695Y197563D01*
X489240D01*
Y202500D01*
X489740D01*
Y203000D01*
X494677D01*
Y203490D01*
X494677Y203490D01*
X494677Y204239D01*
Y207500D01*
Y211510D01*
Y214545D01*
X500582Y218547D01*
X500825Y218712D01*
X505545D01*
X508648D01*
D01*
X508648D01*
X508648Y218712D01*
X509500D01*
X512179Y219821D01*
X512781Y220423D01*
X512781Y220423D01*
X512781Y220423D01*
X512781D01*
X514981Y222623D01*
X520338Y227980D01*
X528212Y224718D01*
Y179929D01*
Y176852D01*
D01*
X528212Y168977D01*
Y167490D01*
X528212Y167069D01*
X522737Y161595D01*
D01*
X522737Y161595D01*
Y161595D01*
X516771Y156990D01*
X515895Y156346D01*
X515853Y156327D01*
X514401Y155937D01*
X512045D01*
X511189Y155937D01*
X510500D01*
Y151000D01*
Y146063D01*
X511189D01*
X512045Y146063D01*
X516805D01*
X519063D01*
X521613Y146063D01*
X528937D01*
Y155937D01*
X528937D01*
X528602Y156745D01*
X532411Y160553D01*
X534077Y162219D01*
X535843Y163408D01*
X539045Y165563D01*
X540120Y166638D01*
X541937Y168455D01*
Y172545D01*
X539045Y175437D01*
X537921D01*
X536086Y177272D01*
X535788Y177569D01*
Y180647D01*
Y223582D01*
Y225436D01*
X535788Y233310D01*
Y260594D01*
X541455Y266063D01*
X545545D01*
X546483Y267001D01*
X546694Y267212D01*
X567931D01*
X572796Y262346D01*
X573712Y254852D01*
X573712Y254000D01*
X574821Y251321D01*
X574821Y251321D01*
X575423Y250719D01*
X575423Y250719D01*
X576438Y249704D01*
X576438Y249704D01*
X577568Y248575D01*
X580991Y245151D01*
X587151Y238991D01*
X591704Y234438D01*
X592719Y233423D01*
X592719Y233423D01*
X593321Y232821D01*
X596000Y231712D01*
X596851D01*
X596851Y231712D01*
X598220D01*
X604726Y231712D01*
X663649D01*
X663806D01*
X664955Y230563D01*
X669045Y230563D01*
X669045Y230563D01*
X671937Y233455D01*
X671937Y236490D01*
X671937Y236490D01*
X671937Y237239D01*
Y240500D01*
Y243455D01*
Y246490D01*
Y250500D01*
Y253455D01*
Y256490D01*
Y260500D01*
Y263455D01*
Y265000D01*
X667000D01*
X662063D01*
Y263455D01*
X655915Y259288D01*
X608728D01*
X608569D01*
X604288Y263569D01*
Y271649D01*
X604288Y271649D01*
X604288Y272500D01*
X603179Y275179D01*
X603179Y275179D01*
X602577Y275781D01*
X602577Y275781D01*
X601562Y276796D01*
X601562Y276796D01*
X600432Y277925D01*
X597009Y281349D01*
X590436Y287922D01*
X589276Y289136D01*
X587937Y296455D01*
X587937Y300545D01*
X585045Y303437D01*
X582768D01*
X580105Y304419D01*
X575968Y309197D01*
X575937Y310045D01*
X574999Y310983D01*
X574788Y311194D01*
Y318690D01*
X574788Y326564D01*
Y329115D01*
Y342931D01*
X574909Y343051D01*
X577509Y345651D01*
X582419Y350561D01*
X583077Y351219D01*
X589290Y355228D01*
X592662Y355572D01*
X593382Y354852D01*
X596140Y352095D01*
X598500D01*
Y359000D01*
X599000D01*
Y359500D01*
X605905D01*
Y361860D01*
X602988Y365110D01*
Y372890D01*
X605905Y376140D01*
Y381860D01*
X602988Y385110D01*
Y392890D01*
X605905Y396140D01*
Y401860D01*
X602999Y404767D01*
X602788Y404978D01*
Y413902D01*
Y416900D01*
D01*
Y416900D01*
X602788Y416900D01*
Y417752D01*
X601679Y420431D01*
X601077Y421033D01*
X601077Y421033D01*
X601077Y421033D01*
X601077D01*
X598948Y423162D01*
X591280Y430830D01*
X591280Y431127D01*
D01*
X591280Y431127D01*
Y435238D01*
X587234Y439284D01*
X581514D01*
X579845Y437615D01*
X572571Y436166D01*
X568656D01*
X560906Y438360D01*
X556860Y442406D01*
X551140D01*
X547094Y438360D01*
Y432640D01*
X551140Y428594D01*
X552316D01*
X557118Y428591D01*
X557122Y428590D01*
X557838D01*
X565712Y423004D01*
Y387050D01*
X565518Y386844D01*
X561241Y386852D01*
X556709Y389130D01*
Y389130D01*
X556396Y389260D01*
X550573Y391804D01*
X549354Y392805D01*
X548537Y394179D01*
X546808Y394895D01*
X545858Y395288D01*
X544421Y395288D01*
X544421Y395288D01*
X539097Y395288D01*
X535586D01*
X535375Y395499D01*
X533453Y397421D01*
X528547D01*
X525079Y393953D01*
Y389047D01*
X528113Y385000D01*
X525079Y380953D01*
Y376047D01*
X528113Y372000D01*
X525079Y367953D01*
Y363047D01*
X526897Y361229D01*
X527464Y360662D01*
X526989Y358224D01*
X521367Y352788D01*
X515194D01*
X514045Y353937D01*
X510056D01*
X509955Y353937D01*
X509416Y353421D01*
X506330Y352252D01*
X501527Y351962D01*
X493899Y357183D01*
X493568Y357558D01*
X493536Y359662D01*
X496921Y363047D01*
Y367953D01*
X493887Y372000D01*
X496921Y376047D01*
Y380953D01*
X493887Y385000D01*
X496921Y389047D01*
Y393953D01*
X493453Y397421D01*
X488547D01*
X486625Y395499D01*
X486414Y395288D01*
X483087D01*
X477634Y397321D01*
X474668Y405238D01*
X475812Y408000D01*
X474247Y411779D01*
X474247Y414221D01*
X475812Y418000D01*
X477779Y420053D01*
X481720Y421230D01*
X486321Y421821D01*
X489000Y420712D01*
X489852D01*
X489852Y420712D01*
X491287D01*
X495500Y420712D01*
X499713Y420712D01*
X501149D01*
X501149Y420712D01*
X502000D01*
X504679Y421821D01*
X505281Y422423D01*
X505281Y422423D01*
X508885Y426027D01*
X514612Y431212D01*
X517849D01*
X522914D01*
X523125Y431002D01*
Y431002D01*
X523125Y431001D01*
X525047Y429079D01*
X529953D01*
X533421Y432547D01*
Y437453D01*
X529953Y440921D01*
X525047D01*
X523125Y438999D01*
X522914Y438788D01*
X520722D01*
X516061Y446662D01*
X517389Y449937D01*
X519455Y451728D01*
X519679Y451821D01*
X520445Y452588D01*
X520445Y452588D01*
X521460Y453603D01*
X525011Y457153D01*
X528562Y460704D01*
X529577Y461719D01*
X529577Y461719D01*
X530179Y462321D01*
X531288Y465000D01*
Y465851D01*
X531288Y465851D01*
X533421Y472547D01*
X533421Y472842D01*
Y477453D01*
X538955Y481914D01*
X539057Y481996D01*
Y481996D01*
X539324Y482212D01*
X541931Y482212D01*
X543812Y480330D01*
X547094Y477048D01*
X547094Y476751D01*
D01*
X547094Y476751D01*
Y472640D01*
X551140Y468595D01*
X556860D01*
X560906Y472640D01*
Y475536D01*
X560906Y475834D01*
X578397D01*
X578607Y475624D01*
Y475624D01*
X578607Y475624D01*
X581514Y472717D01*
X587234D01*
X591280Y476762D01*
Y482482D01*
X587234Y486528D01*
X581514D01*
X578607Y483621D01*
X578397Y483410D01*
X562901D01*
X560657D01*
X558122Y483410D01*
X557126Y482998D01*
X552730Y482406D01*
X552452Y482406D01*
X548873Y485985D01*
X546781Y488077D01*
Y488077D01*
X546781Y488077D01*
X546781Y488077D01*
X546179Y488679D01*
X543500Y489788D01*
X542649D01*
Y489788D01*
D02*
G37*
G36*
X635266Y486528D02*
X629545D01*
X625500Y482482D01*
Y476762D01*
X629545Y472717D01*
X631867D01*
X632016Y472358D01*
X635843Y470773D01*
X665342D01*
X667743Y466751D01*
X664605Y461412D01*
X580854D01*
X579360Y462906D01*
X573640D01*
X569594Y458860D01*
Y453140D01*
X573640Y449094D01*
X579360D01*
X580854Y450588D01*
X661944D01*
X665626Y442714D01*
X665220Y442227D01*
X636842D01*
X633016Y440642D01*
X632453Y439284D01*
X629545D01*
X625500Y435238D01*
Y429518D01*
X629545Y425472D01*
X635266D01*
X639311Y429518D01*
Y431403D01*
X672646D01*
X674140Y429910D01*
X679860D01*
X682383Y432432D01*
X683906Y433955D01*
Y439675D01*
X681275Y442306D01*
X680430Y446658D01*
X681275Y451009D01*
X683906Y453640D01*
Y459360D01*
X681010Y463352D01*
Y469333D01*
X683906Y473325D01*
Y479045D01*
X679860Y483090D01*
X674140D01*
X672646Y481597D01*
X639311D01*
Y482482D01*
X635266Y486528D01*
D02*
G37*
G36*
X605905Y358500D02*
X599500D01*
Y352095D01*
X601860D01*
X605905Y356140D01*
Y358500D01*
D02*
G37*
G36*
X316000Y275937D02*
X314455D01*
X311563Y273045D01*
Y271500D01*
X316000D01*
Y275937D01*
D02*
G37*
G36*
X669045Y270437D02*
X667500D01*
Y266000D01*
X671937D01*
Y267545D01*
X669045Y270437D01*
D02*
G37*
G36*
X666500D02*
X664955D01*
X662063Y267545D01*
Y266000D01*
X666500D01*
Y270437D01*
D02*
G37*
G36*
X494677Y202000D02*
X490240D01*
Y197563D01*
X491785D01*
X491785Y197563D01*
X494677Y200455D01*
Y202000D01*
D02*
G37*
G36*
X227500Y171000D02*
X223063D01*
Y169455D01*
X225955Y166563D01*
X227500D01*
Y171000D01*
D02*
G37*
G36*
X190000D02*
X185563D01*
Y169455D01*
X188455Y166563D01*
X190000D01*
Y171000D01*
D02*
G37*
G36*
X265000D02*
X260563D01*
Y169455D01*
X263455Y166563D01*
X265000D01*
Y171000D01*
D02*
G37*
G36*
X270437D02*
X266000D01*
Y166563D01*
X267545Y166563D01*
X267545Y166563D01*
X270437Y169455D01*
Y171000D01*
D02*
G37*
G36*
X232937D02*
X228500D01*
Y166563D01*
X230045Y166563D01*
X230045Y166563D01*
X232937Y169455D01*
Y171000D01*
D02*
G37*
G36*
X195437D02*
X191000D01*
Y166563D01*
X192545Y166563D01*
X192545Y166563D01*
X195437Y169455D01*
Y171000D01*
D02*
G37*
G36*
X157937Y170500D02*
X153500D01*
Y166063D01*
X155045D01*
X157937Y168955D01*
Y170500D01*
D02*
G37*
G36*
X152500D02*
X148063D01*
Y168955D01*
X150955Y166063D01*
X152500D01*
Y170500D01*
D02*
G37*
G36*
X509500Y155937D02*
X507955D01*
X505063Y153045D01*
Y151500D01*
X509500D01*
Y155937D01*
D02*
G37*
G36*
X199858Y155217D02*
Y149795D01*
X205279D01*
Y151748D01*
X203910Y153117D01*
X201811Y155217D01*
X199858D01*
D02*
G37*
G36*
X216689Y155217D02*
X213221Y151748D01*
X213221Y149795D01*
X218642D01*
Y155217D01*
X216689D01*
D02*
G37*
G36*
X509500Y150500D02*
X505063D01*
Y148955D01*
X507955Y146063D01*
X509500D01*
Y150500D01*
D02*
G37*
G36*
X218642Y148795D02*
X213221D01*
Y148779D01*
Y146843D01*
X216689Y143374D01*
X218642D01*
Y148795D01*
D02*
G37*
G36*
X205279D02*
X199858D01*
Y143374D01*
X201811D01*
X205279Y146843D01*
Y148795D01*
D02*
G37*
%LPD*%
G36*
X487483Y459660D02*
X489719Y457423D01*
X489719Y457423D01*
X490321Y456821D01*
X493000Y455712D01*
X493852D01*
X493852Y455712D01*
X495036D01*
X501068Y455712D01*
X501092Y455693D01*
X506845Y451219D01*
X507031Y450000D01*
X511000D01*
Y449000D01*
X507047D01*
Y447863D01*
X504706Y439958D01*
X503424Y438693D01*
X501887Y438487D01*
X499453Y440921D01*
X497500D01*
Y435000D01*
X496500D01*
Y440921D01*
X494547D01*
X491079Y437453D01*
X488416Y434749D01*
X478963Y434711D01*
X475812Y438000D01*
X474247Y441779D01*
X474247Y444221D01*
X475812Y448000D01*
X474247Y451779D01*
X474247Y454221D01*
X475812Y458000D01*
X477265Y459576D01*
X483642Y460355D01*
X487483Y459660D01*
D02*
G37*
D32*
X342500Y204000D02*
X354500D01*
X367000Y204500D02*
X379500D01*
X289500Y180000D02*
X303500D01*
X289500Y194000D02*
X303500Y180000D01*
X305000D01*
X366500Y204000D02*
X367000Y204500D01*
X461000Y203500D02*
Y219000D01*
Y189000D02*
Y203500D01*
X460500Y204000D02*
X461000Y203500D01*
X397750Y222750D02*
X413500Y238500D01*
X379500Y204500D02*
X397750Y222750D01*
X398750D01*
X417500Y204000D01*
X453000Y288000D02*
X463000D01*
X447579D02*
X453000D01*
X458000Y283000D02*
X463000Y288000D01*
X468500D01*
X453000D02*
X458000Y283000D01*
X289500Y194000D02*
X295500D01*
X168846Y136500D02*
X181642Y123705D01*
X141500Y136500D02*
X168846D01*
X126000Y152000D02*
X141500Y136500D01*
X139795Y123705D02*
X144142D01*
X130000Y133500D02*
X139795Y123705D01*
X190500Y158153D02*
X199358Y149295D01*
X153000Y158153D02*
X161858Y149295D01*
X117000Y146500D02*
X130000Y133500D01*
X117000Y146500D02*
Y225000D01*
X510500Y448500D02*
X511000D01*
X209500Y171000D02*
X228000D01*
X190500D02*
X209000D01*
X153000D02*
X190500D01*
X228000D02*
X265000D01*
X317000Y131000D02*
Y144000D01*
X298500Y112500D02*
X317000Y131000D01*
X209000Y112500D02*
X298500D01*
X305000Y147500D02*
X325000Y167500D01*
X305000Y140000D02*
Y147500D01*
Y134500D02*
Y140000D01*
X273358Y124205D02*
X294705D01*
X305000Y134500D01*
X236858Y123705D02*
Y124358D01*
X249500Y137000D01*
X479500Y391500D02*
X491000D01*
X476000Y388000D02*
X479500Y391500D01*
X468500Y388000D02*
X476000D01*
X537000Y378500D02*
X539453Y380953D01*
X531000Y378500D02*
X537000D01*
X531000Y365500D02*
X546858D01*
X531000Y391500D02*
X545858D01*
X569500Y375000D02*
Y432378D01*
Y361405D02*
Y375000D01*
X564953Y375047D02*
X565000Y375000D01*
X569500D01*
X490500Y378000D02*
X491000Y378500D01*
X468500Y378000D02*
X490500D01*
X468500Y368000D02*
X469000Y367500D01*
X487000D01*
X489000Y365500D01*
X491000D01*
X468500Y358000D02*
X482000D01*
Y301500D02*
X485000Y298500D01*
X489740Y222500D02*
X509500D01*
X473000Y215000D02*
X480500Y222500D01*
X489740D01*
X473000Y198500D02*
Y215000D01*
X506000Y415500D02*
X516000Y425500D01*
X486000Y415500D02*
X506000D01*
X484000Y417500D02*
X486000Y415500D01*
X468500Y418000D02*
X469000Y417500D01*
X484000D01*
X516000Y425500D02*
X534000D01*
X538500Y430000D02*
Y441000D01*
X534000Y425500D02*
X538500Y430000D01*
X534500Y445000D02*
X538500Y441000D01*
X514500Y445000D02*
X534500D01*
X510000Y151000D02*
Y194500D01*
Y138000D02*
Y151000D01*
X511000Y448500D02*
X514500Y445000D01*
X581000Y354500D02*
Y371000D01*
X571000Y344500D02*
X581000Y354500D01*
X571000Y308000D02*
Y344500D01*
X543500Y271000D02*
X569500D01*
X532000Y165500D02*
X537000Y170500D01*
X524000Y157500D02*
X532000Y165500D01*
Y176000D01*
X537000Y171000D01*
Y170500D02*
Y171000D01*
X524000Y151000D02*
Y157500D01*
X532000Y176000D02*
Y297000D01*
X461000Y189000D02*
X479500Y170500D01*
X497000D01*
X543500Y486000D02*
X554000Y475500D01*
X492000Y486000D02*
X543500D01*
X485500Y479500D02*
X492000Y486000D01*
X588500Y258500D02*
Y270500D01*
X583000Y276000D02*
X588500Y270500D01*
X565500Y298500D02*
X583000D01*
Y275500D02*
Y276000D01*
X569500Y271000D02*
X577500Y263000D01*
Y254000D02*
Y263000D01*
Y254000D02*
X596000Y235500D01*
X523000Y236000D02*
Y291500D01*
X516000Y298500D02*
X523000Y291500D01*
X485000Y298500D02*
X516000D01*
X509500Y222500D02*
X523000Y236000D01*
X326000Y403000D02*
Y469500D01*
X307500Y488000D02*
X326000Y469500D01*
X242000Y270500D02*
X279200Y233300D01*
X238500Y270500D02*
X242000D01*
X239500Y201500D02*
X263500D01*
X227000Y214000D02*
X239500Y201500D01*
X147000Y214000D02*
X227000D01*
X235500Y191500D02*
X255500D01*
X223500Y203500D02*
X235500Y191500D01*
X211500Y203500D02*
X223500D01*
X255500Y191500D02*
X265500Y181500D01*
X126000Y152000D02*
Y215000D01*
X283000Y223300D02*
X287300D01*
X295500Y231500D02*
X311000D01*
X287300Y223300D02*
X295500Y231500D01*
X292000Y240000D02*
X307000D01*
X285300Y233300D02*
X292000Y240000D01*
X283000Y233300D02*
X285300D01*
X312300Y245300D02*
X364800D01*
X307000Y240000D02*
X312300Y245300D01*
X311000Y231500D02*
X314800Y235300D01*
X368300D01*
X314500Y223000D02*
X316800Y225300D01*
X298500Y223000D02*
X314500D01*
X288800Y213300D02*
X298500Y223000D01*
X316000Y174000D02*
Y208500D01*
X310000Y214500D02*
X316000Y208500D01*
X303000Y214500D02*
X310000D01*
X292500Y204000D02*
X303000Y214500D01*
X289500Y147500D02*
X316000Y174000D01*
X289500Y140000D02*
Y147500D01*
X323500Y218600D02*
X325000Y217100D01*
Y167500D02*
Y217100D01*
X334000Y161000D02*
Y210500D01*
X330000Y157000D02*
X334000Y161000D01*
Y210500D02*
X338000Y214500D01*
X143500Y203500D02*
X151000D01*
X136000D02*
X143500D01*
Y210500D01*
X271000Y194000D02*
X289500D01*
X317000Y144000D02*
X323000Y150000D01*
X255642Y149795D02*
X256642D01*
X265500Y158653D01*
X209000Y112500D02*
Y171000D01*
X153000Y158153D02*
Y171000D01*
X151000Y240000D02*
Y243500D01*
X126000Y215000D02*
X151000Y240000D01*
X220000Y261500D02*
X248200Y233300D01*
X189000Y261500D02*
X220000D01*
X181500Y254000D02*
X189000Y261500D01*
X215000Y253500D02*
X245200Y223300D01*
X202000Y253500D02*
X215000D01*
X196500Y248000D02*
X202000Y253500D01*
X245200Y223300D02*
X253000D01*
X308000Y358000D02*
X337000D01*
X307000Y356500D02*
X307250Y356750D01*
X307000Y357000D02*
X308000Y358000D01*
X262000Y343500D02*
X267000Y338500D01*
X257000Y348500D02*
X262000Y343500D01*
X268000Y338500D02*
X273000Y343500D01*
X278500Y349000D01*
X262000Y343500D02*
X273000D01*
X267000Y338500D02*
X268000D01*
X278500Y349000D02*
Y373000D01*
X287500Y357500D02*
Y453500D01*
Y357500D02*
X297000Y348000D01*
X282500Y458500D02*
X287500Y453500D01*
X266500Y385000D02*
X278500Y373000D01*
X219500Y344000D02*
X237000Y361500D01*
X172500Y344000D02*
X219500D01*
X159500Y352500D02*
X168000Y344000D01*
X172500D01*
X159500Y352500D02*
Y370000D01*
X166500Y377000D01*
X132500Y344000D02*
X142000Y334500D01*
X122500Y353000D02*
X127000Y357500D01*
X122500Y336500D02*
Y353000D01*
Y336500D02*
X133500Y325500D01*
X114500Y420000D02*
X133000Y438500D01*
X114500Y331500D02*
Y420000D01*
Y331500D02*
X130500Y315500D01*
X133500Y325500D02*
X253000D01*
X261000Y377000D02*
X267000Y371000D01*
X222500Y377000D02*
X261000D01*
X213000Y367500D02*
X222500Y377000D01*
X214500Y385000D02*
X266500D01*
X203000Y373500D02*
X214500Y385000D01*
X237000Y361500D02*
Y367500D01*
X166500Y377000D02*
X177500D01*
X162500Y443000D02*
X171000Y451500D01*
X162500Y425000D02*
Y443000D01*
Y425000D02*
X168500Y419000D01*
X154000Y448500D02*
X167000Y461500D01*
X154000Y421500D02*
Y448500D01*
Y421500D02*
X164500Y411000D01*
X125000Y449500D02*
X133000D01*
X106500Y431000D02*
X125000Y449500D01*
X106500Y325000D02*
Y431000D01*
X167000Y461500D02*
X183500D01*
X186000Y459000D02*
X188500D01*
X183500Y461500D02*
X186000Y459000D01*
X173000Y451500D02*
X175000Y449500D01*
X225000D01*
X171000Y451500D02*
X173000D01*
X512500Y435000D02*
X527500D01*
X502000Y424500D02*
X512500Y435000D01*
X489000Y424500D02*
X502000D01*
X485500Y428000D02*
X489000Y424500D01*
X273500Y450500D02*
X278000Y446000D01*
Y422000D02*
Y446000D01*
X267500Y411500D02*
X278000Y422000D01*
X303000Y451000D02*
X307000D01*
X296500Y444500D02*
X303000Y451000D01*
X296500Y394000D02*
Y444500D01*
X267000Y451000D02*
X267500Y450500D01*
X273500D01*
X262500Y451000D02*
X267000D01*
X257000Y445500D02*
X262500Y451000D01*
X257000Y427500D02*
Y445500D01*
X342000Y288000D02*
X346500D01*
X279000Y462000D02*
X280000Y461000D01*
X253500D02*
X280000D01*
X251000Y458500D02*
X253500Y461000D01*
X296500Y394000D02*
X322500Y368000D01*
X594000Y132000D02*
X677500Y215500D01*
X513948Y132000D02*
X515500D01*
X510000Y137500D02*
Y138000D01*
Y133000D02*
Y135948D01*
X504000Y132000D02*
X509000D01*
X510000Y133000D01*
X324000Y149000D02*
X330000D01*
Y157000D01*
X404500Y413500D02*
X409000Y418000D01*
X323000Y150000D02*
X324000Y149000D01*
X342000Y288000D02*
X346500Y283500D01*
Y288000D01*
X326000Y153000D02*
X330000Y157000D01*
X404500Y244000D02*
Y413500D01*
X337000Y288000D02*
X342000D01*
X323000Y150000D02*
X326000Y153000D01*
X404500Y413500D02*
Y422500D01*
X346500Y288000D02*
X351000D01*
X552000Y279500D02*
X571000D01*
X541500Y290000D02*
X552000Y279500D01*
X541500Y290000D02*
Y304000D01*
X584500Y288500D02*
X600500Y272500D01*
X559000Y288500D02*
X584500D01*
X551500Y296000D02*
X559000Y288500D01*
X458000Y271000D02*
Y283000D01*
X557094Y349000D02*
X569500Y361405D01*
X346500Y271000D02*
Y283500D01*
X351000Y288000D01*
X417500Y204000D02*
X460500D01*
X426000Y288000D02*
X447579D01*
X413500Y275500D02*
X426000Y288000D01*
X413500Y238500D02*
Y275500D01*
X409000Y418000D02*
X447579D01*
X404500Y422500D02*
X409000Y418000D01*
X560500Y303500D02*
X565500Y298500D01*
X560500Y303500D02*
Y317500D01*
X525500Y320000D02*
X541500Y304000D01*
X551500Y296000D02*
Y310000D01*
X539000Y339000D02*
X560500Y317500D01*
X508500Y339000D02*
X539000D01*
X295500Y194000D02*
X306000Y204500D01*
X273300Y223300D02*
X283000D01*
X269000Y219000D02*
X273300Y223300D01*
X269000Y210000D02*
Y219000D01*
Y210000D02*
X275000Y204000D01*
X292500D01*
X599000Y290000D02*
X611500Y277500D01*
Y268500D02*
Y277500D01*
Y268500D02*
X614500Y265500D01*
X667000D01*
X599000Y290000D02*
Y359000D01*
X589000Y379000D02*
X599000D01*
X581000Y371000D02*
X589000Y379000D01*
X326000Y153000D02*
X330000Y149000D01*
X468500Y428000D02*
X485500D01*
X512000Y349000D02*
X557094D01*
X468500Y288000D02*
X512000D01*
X499500Y348000D02*
X508500Y339000D01*
X468500Y348000D02*
X499500D01*
X600500Y262000D02*
Y272500D01*
X532000Y329500D02*
X551500Y310000D01*
X503500Y329500D02*
X532000D01*
X495000Y338000D02*
X503500Y329500D01*
X468500Y338000D02*
X495000D01*
X496500Y320000D02*
X525500D01*
X488500Y328000D02*
X496500Y320000D01*
X468500Y328000D02*
X488500D01*
X519500Y309500D02*
X532000Y297000D01*
X490000Y309500D02*
X519500D01*
X481500Y318000D02*
X490000Y309500D01*
X468500Y318000D02*
X481500D01*
X596000Y235500D02*
X667000D01*
X488000Y271000D02*
X511500D01*
X515500Y132000D02*
X594000D01*
X509000D02*
X513948D01*
X416000D02*
X504000D01*
X510000Y135948D02*
Y137500D01*
X509000Y137000D02*
X510000Y138000D01*
X504000Y132000D02*
X509000Y137000D01*
Y132000D02*
Y137000D01*
X510000Y137500D02*
X515500Y132000D01*
X510000Y135948D02*
X513948Y132000D01*
X489740Y202500D02*
X502000D01*
X510000Y194500D01*
X399000Y149000D02*
X416000Y132000D01*
X479000Y232500D02*
X489740D01*
X474500D02*
X479000D01*
X473000Y238500D02*
X479000Y232500D01*
X461000Y219000D02*
X474500Y232500D01*
X330000Y149000D02*
X399000D01*
X404500Y422500D02*
Y442500D01*
X368000Y479000D02*
X404500Y442500D01*
X330500Y479000D02*
X368000D01*
X276000D02*
X296500D01*
X584374Y432378D02*
X599000Y417752D01*
Y399000D02*
Y417752D01*
X677500Y215500D02*
Y261000D01*
X673000Y265500D02*
X677500Y261000D01*
X667000Y265500D02*
X673000D01*
X588500Y258500D02*
X601500Y245500D01*
X667000D01*
X600500Y262000D02*
X607000Y255500D01*
X667000D01*
X569500Y432378D02*
X584374D01*
X557122D02*
X569500D01*
X517000Y454500D02*
X527500Y465000D01*
X516000Y454500D02*
X517000D01*
X485500Y467000D02*
X493000Y459500D01*
X511000D01*
X497000Y435000D02*
X510500Y448500D01*
X485500Y467000D02*
Y479500D01*
X497000Y475000D02*
X527500D01*
Y465000D02*
Y475000D01*
X554000Y435500D02*
X557122Y432378D01*
X558122Y479622D02*
X584374D01*
X554000Y475500D02*
X558122Y479622D01*
X632406Y432378D02*
X636842Y436815D01*
X632406Y479622D02*
X635843Y476185D01*
X676500Y456000D02*
X677000Y456500D01*
X286500Y137000D02*
X289500Y140000D01*
X249500Y137000D02*
X286500D01*
X375000Y214500D02*
X404500Y244000D01*
X338000Y214500D02*
X375000D01*
X277000Y271000D02*
X316500D01*
X259000Y289000D02*
X277000Y271000D01*
X245500Y289000D02*
X259000D01*
X238000Y296500D02*
X245500Y289000D01*
X155500Y296500D02*
X238000D01*
X107500Y248500D02*
X155500Y296500D01*
X234500Y287500D02*
X241500Y280500D01*
X162000Y287500D02*
X234500D01*
X136000Y261500D02*
X162000Y287500D01*
X230500Y278500D02*
X238500Y270500D01*
X168500Y278500D02*
X230500D01*
X151000Y261000D02*
X168500Y278500D01*
X226800Y269500D02*
X253000Y243300D01*
X172500Y269500D02*
X226800D01*
X166500Y263500D02*
X172500Y269500D01*
X330200Y225300D02*
X371300D01*
X323500D02*
X330200D01*
X316800D02*
X323500D01*
Y218600D02*
Y225300D01*
X316800D02*
X323500Y218600D01*
X330200Y225300D01*
X279200Y233300D02*
X283000D01*
X276500Y255300D02*
X360300D01*
X283000Y243300D02*
Y254300D01*
X251300Y280500D02*
X276500Y255300D01*
X283000Y213300D02*
X288800D01*
X196500Y196500D02*
Y203500D01*
X181500Y190500D02*
X190500Y181500D01*
X181500Y190500D02*
Y203500D01*
X166500Y194500D02*
Y203500D01*
X211500Y181500D02*
X228000D01*
X196500Y196500D02*
X211500Y181500D01*
X166500Y243500D02*
Y263500D01*
X151000Y243500D02*
Y261000D01*
X136000Y243500D02*
Y261500D01*
X241500Y280500D02*
X251300D01*
X117000Y225000D02*
X135500Y243500D01*
X136000D01*
X196500D02*
Y248000D01*
X143500Y210500D02*
X147000Y214000D01*
X134500Y112500D02*
X209000D01*
X107500Y139500D02*
X134500Y112500D01*
X107500Y139500D02*
Y248500D01*
X153000Y181000D02*
X165500Y193500D01*
X241700Y213300D02*
X253000D01*
X211500Y243500D02*
X241700Y213300D01*
X248200Y233300D02*
X253000D01*
X190500Y171000D02*
Y171500D01*
Y158153D02*
Y171000D01*
X228000D02*
Y171500D01*
Y158153D02*
Y171000D01*
X265500Y158653D02*
Y171500D01*
X263500Y201500D02*
X271000Y194000D01*
X219142Y149295D02*
X228000Y158153D01*
X181500Y243500D02*
Y254000D01*
X371300Y225300D02*
X395000Y249000D01*
Y417500D01*
X374500Y438000D02*
X395000Y417500D01*
X357421Y438000D02*
X374500D01*
X368300Y235300D02*
X387000Y254000D01*
Y411500D01*
X370500Y428000D02*
X387000Y411500D01*
X357421Y428000D02*
X370500D01*
X364800Y245300D02*
X378500Y259000D01*
Y407500D01*
X368000Y418000D02*
X378500Y407500D01*
X357421Y418000D02*
X368000D01*
X357421Y408000D02*
X366000D01*
X370500Y403500D01*
Y265500D02*
Y403500D01*
X360300Y255300D02*
X370500Y265500D01*
X346500Y271000D02*
X356500D01*
X336500D02*
X346500D01*
X478000D02*
X488000D01*
X468000D02*
X478000D01*
X458000D02*
X468000D01*
X448000D02*
X458000D01*
X326500D02*
X336500D01*
X316500D02*
X326500D01*
X193500Y464000D02*
X197000Y467500D01*
X221500D01*
X242000Y488000D01*
X267500D01*
X279000Y462000D02*
Y476000D01*
X198500Y459000D02*
X228000D01*
X248000Y479000D01*
X276000D01*
X279000Y476000D01*
X317000Y399500D02*
Y460500D01*
X307500Y470000D02*
X317000Y460500D01*
X246000Y463500D02*
X252500Y470000D01*
X267500D01*
X253000Y298000D02*
X337000D01*
X244500Y306500D02*
X253000Y298000D01*
X125000Y306500D02*
X244500D01*
X257500Y308000D02*
X337000D01*
X250000Y315500D02*
X257500Y308000D01*
X130500Y315500D02*
X250000D01*
X260500Y318000D02*
X337000D01*
X253000Y325500D02*
X260500Y318000D01*
X263000Y328000D02*
X337000D01*
X256500Y334500D02*
X263000Y328000D01*
X336500Y338500D02*
X337000Y338000D01*
X307000Y338500D02*
X336500D01*
X297000Y348000D02*
X337000D01*
X307000Y396000D02*
X325000Y378000D01*
X307000Y396000D02*
Y438000D01*
X328500Y388000D02*
X337000D01*
X317000Y399500D02*
X328500Y388000D01*
X331000Y398000D02*
X337000D01*
X326000Y403000D02*
X331000Y398000D01*
X241000Y448500D02*
Y458500D01*
Y448500D02*
X247000Y442500D01*
Y427500D02*
Y442500D01*
X193000Y421000D02*
Y427500D01*
X183000Y411000D02*
X193000Y421000D01*
X164500Y411000D02*
X183000D01*
X447579Y468000D02*
X468500D01*
X447579Y458000D02*
X468500D01*
X447579Y448000D02*
X468500D01*
X447579Y438000D02*
X468500D01*
X447579Y428000D02*
X468500D01*
X447579Y418000D02*
X468500D01*
X447579Y408000D02*
X468500D01*
X447579Y398000D02*
X468500D01*
X447579Y388000D02*
X468500D01*
X447579Y378000D02*
X468500D01*
X447579Y368000D02*
X468500D01*
X447579Y358000D02*
X468500D01*
X447579Y348000D02*
X468500D01*
X447579Y338000D02*
X468500D01*
X447579Y328000D02*
X468500D01*
X447579Y318000D02*
X468500D01*
X447579Y308000D02*
X468500D01*
X447579Y298000D02*
X468500D01*
X337000D02*
X357421D01*
X337000Y308000D02*
X357421D01*
X337000Y318000D02*
X357421D01*
X337000Y328000D02*
X357421D01*
X337000Y338000D02*
X357421D01*
X337000Y348000D02*
X357421D01*
X337000Y358000D02*
X357421D01*
X337000Y368000D02*
X357421D01*
X337000Y378000D02*
X357421D01*
X337000Y388000D02*
X357421D01*
X337000Y398000D02*
X357421D01*
X337000Y408000D02*
X357421D01*
X337000Y418000D02*
X357421D01*
X337000Y428000D02*
X357421D01*
X337000Y438000D02*
X357421D01*
X337000Y448000D02*
X357421D01*
X337000Y458000D02*
X357421D01*
X337000Y468000D02*
X357421D01*
X106500Y325000D02*
X125000Y306500D01*
X127000Y357500D02*
X133000D01*
X142000Y334500D02*
X256500D01*
X322500Y368000D02*
X337000D01*
X325000Y378000D02*
X337000D01*
X222000Y438500D02*
X227000Y433500D01*
X173000Y438500D02*
X222000D01*
X173000Y427500D02*
Y438500D01*
Y357500D02*
X173500Y357000D01*
X173000Y357500D02*
Y367500D01*
X173500Y357000D02*
X216500D01*
X267000Y427500D02*
Y438000D01*
X257000Y348500D02*
Y367500D01*
X267000Y356500D02*
Y367500D01*
X203000D02*
Y373500D01*
X212000Y411500D02*
X267500D01*
X203000Y420500D02*
X212000Y411500D01*
X203000Y420500D02*
Y427500D01*
X213000Y423500D02*
Y427500D01*
Y423500D02*
X217500Y419000D01*
X262000D01*
X267000Y424000D01*
Y427500D01*
X183000Y423500D02*
Y427500D01*
X178500Y419000D02*
X183000Y423500D01*
X168500Y419000D02*
X178500D01*
X225000Y449500D02*
X237000Y437500D01*
Y427500D02*
Y437500D01*
X227000Y427500D02*
Y433500D01*
X267000Y367500D02*
Y371000D01*
X183000Y367500D02*
Y371500D01*
X177500Y377000D02*
X183000Y371500D01*
X216500Y357000D02*
X227000Y367500D01*
D34*
X364500Y204000D02*
D03*
X354500D02*
D03*
D35*
X491000Y378500D02*
D03*
X531000D02*
D03*
Y365500D02*
D03*
X491000D02*
D03*
X307000Y357000D02*
D03*
X267000D02*
D03*
X172500Y344000D02*
D03*
X132500D02*
D03*
X527500Y475000D02*
D03*
X497000D02*
D03*
X531000Y391500D02*
D03*
X491000D02*
D03*
X527500Y435000D02*
D03*
X497000D02*
D03*
X289500Y180000D02*
D03*
Y140000D02*
D03*
X267500Y488000D02*
D03*
X307500D02*
D03*
Y470000D02*
D03*
X267500D02*
D03*
X267000Y451000D02*
D03*
X307000D02*
D03*
X267000Y438000D02*
D03*
X307000D02*
D03*
X267000Y338500D02*
D03*
X307000D02*
D03*
X173000Y451500D02*
D03*
X133000D02*
D03*
X173000Y438500D02*
D03*
X133000D02*
D03*
Y357500D02*
D03*
X173000D02*
D03*
X166500Y243500D02*
D03*
Y203500D02*
D03*
X151000D02*
D03*
Y243500D02*
D03*
X136000Y203500D02*
D03*
Y243500D02*
D03*
X273358Y124205D02*
D03*
Y149795D02*
D03*
X255642D02*
D03*
X236858Y123705D02*
D03*
Y149295D02*
D03*
X219142D02*
D03*
X199358Y123705D02*
D03*
Y149295D02*
D03*
X181642D02*
D03*
X161858Y123705D02*
D03*
Y149295D02*
D03*
X144142D02*
D03*
X305000Y140000D02*
D03*
Y180000D02*
D03*
X181500Y203500D02*
D03*
Y243500D02*
D03*
X211500Y203500D02*
D03*
Y243500D02*
D03*
X196500Y203500D02*
D03*
Y243500D02*
D03*
D36*
X537000Y170500D02*
D03*
X497000D02*
D03*
X667000Y235500D02*
D03*
X510000Y151000D02*
D03*
X489740Y222500D02*
D03*
Y212500D02*
D03*
Y202500D02*
D03*
X473000Y238500D02*
D03*
Y198500D02*
D03*
X488000Y271000D02*
D03*
X478000D02*
D03*
X468000D02*
D03*
X458000D02*
D03*
X448000D02*
D03*
X227000Y367500D02*
D03*
X237000D02*
D03*
X247000D02*
D03*
X257000D02*
D03*
X267000D02*
D03*
X227000Y427500D02*
D03*
X237000D02*
D03*
X247000D02*
D03*
X257000D02*
D03*
X267000D02*
D03*
X173000Y367500D02*
D03*
X183000D02*
D03*
X193000D02*
D03*
X203000D02*
D03*
X213000D02*
D03*
X173000Y427500D02*
D03*
X183000D02*
D03*
X193000D02*
D03*
X203000D02*
D03*
X213000D02*
D03*
X253000Y243300D02*
D03*
Y233300D02*
D03*
Y223300D02*
D03*
Y213300D02*
D03*
X283000Y243300D02*
D03*
Y233300D02*
D03*
Y223300D02*
D03*
X153000Y171000D02*
D03*
Y181000D02*
D03*
X190500Y171500D02*
D03*
Y181500D02*
D03*
X228000Y171500D02*
D03*
Y181500D02*
D03*
X265500D02*
D03*
Y171500D02*
D03*
X667000Y265500D02*
D03*
Y255500D02*
D03*
Y245500D02*
D03*
X316500Y271000D02*
D03*
X326500D02*
D03*
X336500D02*
D03*
X346500D02*
D03*
X356500D02*
D03*
X342000Y204500D02*
D03*
X482000Y358000D02*
D03*
Y301500D02*
D03*
X543500Y271000D02*
D03*
X583000Y298500D02*
D03*
Y276000D02*
D03*
X571000Y308000D02*
D03*
Y279500D02*
D03*
X512000Y349000D02*
D03*
Y288000D02*
D03*
X511500Y271000D02*
D03*
X330500Y479000D02*
D03*
X296500D02*
D03*
X306000Y204500D02*
D03*
D37*
X337000Y358000D02*
D03*
Y288000D02*
D03*
Y468000D02*
D03*
Y458000D02*
D03*
Y448000D02*
D03*
Y438000D02*
D03*
Y428000D02*
D03*
Y418000D02*
D03*
Y408000D02*
D03*
Y398000D02*
D03*
Y388000D02*
D03*
Y378000D02*
D03*
Y368000D02*
D03*
Y328000D02*
D03*
Y318000D02*
D03*
Y308000D02*
D03*
Y298000D02*
D03*
X468500Y468000D02*
D03*
Y458000D02*
D03*
Y448000D02*
D03*
Y438000D02*
D03*
Y428000D02*
D03*
Y418000D02*
D03*
Y408000D02*
D03*
Y398000D02*
D03*
Y388000D02*
D03*
Y378000D02*
D03*
Y368000D02*
D03*
Y358000D02*
D03*
Y348000D02*
D03*
Y338000D02*
D03*
Y328000D02*
D03*
Y318000D02*
D03*
Y308000D02*
D03*
Y298000D02*
D03*
Y288000D02*
D03*
D38*
X337000Y338000D02*
D03*
Y348000D02*
D03*
D39*
X554000Y475500D02*
D03*
Y435500D02*
D03*
X584374Y479622D02*
D03*
X677000Y476185D02*
D03*
X599000Y359000D02*
D03*
Y379000D02*
D03*
Y399000D02*
D03*
X677000Y436815D02*
D03*
Y456500D02*
D03*
X576500Y456000D02*
D03*
X632406Y479622D02*
D03*
Y432378D02*
D03*
X584374D02*
D03*
D40*
X550500Y386858D02*
D03*
Y380953D02*
D03*
Y375047D02*
D03*
Y369142D02*
D03*
D41*
X524000Y151000D02*
D03*
D42*
X489740Y232500D02*
D03*
X283000Y213300D02*
D03*
D43*
X357421Y458000D02*
D03*
Y418000D02*
D03*
Y378000D02*
D03*
Y338000D02*
D03*
Y298000D02*
D03*
Y468000D02*
D03*
Y438000D02*
D03*
Y428000D02*
D03*
Y408000D02*
D03*
Y398000D02*
D03*
Y368000D02*
D03*
Y358000D02*
D03*
Y348000D02*
D03*
Y328000D02*
D03*
Y318000D02*
D03*
Y308000D02*
D03*
Y448000D02*
D03*
Y388000D02*
D03*
Y288000D02*
D03*
X447579D02*
D03*
Y458000D02*
D03*
Y418000D02*
D03*
Y378000D02*
D03*
Y338000D02*
D03*
Y298000D02*
D03*
Y468000D02*
D03*
Y438000D02*
D03*
Y428000D02*
D03*
Y408000D02*
D03*
Y398000D02*
D03*
Y368000D02*
D03*
Y358000D02*
D03*
Y348000D02*
D03*
Y328000D02*
D03*
Y318000D02*
D03*
Y308000D02*
D03*
Y448000D02*
D03*
Y388000D02*
D03*
D44*
X255642Y124205D02*
D03*
X219142Y123705D02*
D03*
X181642D02*
D03*
X144142D02*
D03*
D45*
X511000Y459500D02*
D03*
Y449500D02*
D03*
X516000Y454500D02*
D03*
X246000Y463500D02*
D03*
X251000Y458500D02*
D03*
X241000D02*
D03*
X188500Y459000D02*
D03*
X198500D02*
D03*
X193500Y464000D02*
D03*
D46*
X342000Y204500D02*
X342500Y204000D01*
X539453Y380953D02*
X550500D01*
X546858Y365500D02*
X550500Y369142D01*
X545858Y391500D02*
X550500Y386858D01*
Y375047D02*
X564953D01*
D47*
X636842Y436815D02*
X677000D01*
X635843Y476185D02*
X677000D01*
X576500Y456000D02*
X676500D01*
M02*
