G04*
G04 #@! TF.GenerationSoftware,Altium Limited,CircuitMaker,2.2.1 (2.2.1.6)*
G04*
G04 Layer_Color=2752767*
%FSLAX25Y25*%
%MOIN*%
G70*
G04*
G04 #@! TF.SameCoordinates,4B569A1E-B195-418F-9F09-93343C68B421*
G04*
G04*
G04 #@! TF.FilePolarity,Positive*
G04*
G01*
G75*
%ADD51C,0.00200*%
%ADD52C,0.00267*%
%ADD53C,0.00133*%
D51*
X363700Y203200D02*
Y204800D01*
X365300D01*
Y203200D01*
X363700D01*
X353700D02*
Y204800D01*
X355300D01*
Y203200D01*
X353700D01*
X337000Y357200D02*
X336200Y358800D01*
X337800D01*
X337000Y357200D01*
Y337200D02*
X336200Y338800D01*
X337800D01*
X337000Y337200D01*
Y287200D02*
X336200Y288800D01*
X337800D01*
X337000Y287200D01*
X667000Y234700D02*
X666200Y236300D01*
X667800D01*
X667000Y234700D01*
X554000Y474700D02*
X554400Y475100D01*
X554800D01*
X554400Y475500D01*
X554800Y475900D01*
X554400D01*
X554000Y476300D01*
X553600Y475900D01*
X553200D01*
X553600Y475500D01*
X553200Y475100D01*
X553600D01*
X554000Y474700D01*
Y434700D02*
X554400Y435100D01*
X554800D01*
X554400Y435500D01*
X554800Y435900D01*
X554400D01*
X554000Y436300D01*
X553600Y435900D01*
X553200D01*
X553600Y435500D01*
X553200Y435100D01*
X553600D01*
X554000Y434700D01*
X583574Y478822D02*
X583974Y479622D01*
X583574Y480422D01*
X584374Y480022D01*
X585174Y480422D01*
X584774Y479622D01*
X585174Y478822D01*
X584374Y479222D01*
X583574Y478822D01*
X676600Y475785D02*
Y475385D01*
X677400D01*
Y475785D01*
X677800D01*
Y476585D01*
X677400D01*
Y476985D01*
X676600D01*
Y476585D01*
X676200D01*
Y475785D01*
X676600D01*
X598200Y358200D02*
X598600D01*
X599000Y358600D01*
X599400Y358200D01*
X599800D01*
Y358600D01*
X599400Y359000D01*
X599800Y359400D01*
Y359800D01*
X599400D01*
X599000Y359400D01*
X598600Y359800D01*
X598200D01*
Y359400D01*
X598600Y359000D01*
X598200Y358600D01*
Y358200D01*
Y378200D02*
X598600D01*
X599000Y378600D01*
X599400Y378200D01*
X599800D01*
Y378600D01*
X599400Y379000D01*
X599800Y379400D01*
Y379800D01*
X599400D01*
X599000Y379400D01*
X598600Y379800D01*
X598200D01*
Y379400D01*
X598600Y379000D01*
X598200Y378600D01*
Y378200D01*
Y398200D02*
X598600D01*
X599000Y398600D01*
X599400Y398200D01*
X599800D01*
Y398600D01*
X599400Y399000D01*
X599800Y399400D01*
Y399800D01*
X599400D01*
X599000Y399400D01*
X598600Y399800D01*
X598200D01*
Y399400D01*
X598600Y399000D01*
X598200Y398600D01*
Y398200D01*
X676600Y436415D02*
Y436015D01*
X677400D01*
Y436415D01*
X677800D01*
Y437215D01*
X677400D01*
Y437615D01*
X676600D01*
Y437215D01*
X676200D01*
Y436415D01*
X676600D01*
Y456100D02*
Y455700D01*
X677400D01*
Y456100D01*
X677800D01*
Y456900D01*
X677400D01*
Y457300D01*
X676600D01*
Y456900D01*
X676200D01*
Y456100D01*
X676600D01*
X575700Y455200D02*
X576100Y456000D01*
X575700Y456800D01*
X576500Y456400D01*
X577300Y456800D01*
X576900Y456000D01*
X577300Y455200D01*
X576500Y455600D01*
X575700Y455200D01*
X631605Y478822D02*
X632006Y479622D01*
X631605Y480422D01*
X632406Y480022D01*
X633206Y480422D01*
X632805Y479622D01*
X633206Y478822D01*
X632406Y479222D01*
X631605Y478822D01*
Y431578D02*
X632006Y432378D01*
X631605Y433178D01*
X632406Y432778D01*
X633206Y433178D01*
X632805Y432378D01*
X633206Y431578D01*
X632406Y431978D01*
X631605Y431578D01*
X583574D02*
X583974Y432378D01*
X583574Y433178D01*
X584374Y432778D01*
X585174Y433178D01*
X584774Y432378D01*
X585174Y431578D01*
X584374Y431978D01*
X583574Y431578D01*
X549700Y386858D02*
X550500Y387658D01*
X551300Y386858D01*
X550500Y386058D01*
X549700Y386858D01*
Y380953D02*
X550500Y381753D01*
X551300Y380953D01*
X550500Y380153D01*
X549700Y380953D01*
Y375047D02*
X550500Y375847D01*
X551300Y375047D01*
X550500Y374247D01*
X549700Y375047D01*
Y369142D02*
X550500Y369942D01*
X551300Y369142D01*
X550500Y368342D01*
X549700Y369142D01*
X509200Y151000D02*
X510000Y151800D01*
X510800Y151000D01*
X510000Y150200D01*
X509200Y151000D01*
X523200D02*
X524000Y151800D01*
X524800Y151000D01*
X524000Y150200D01*
X523200Y151000D01*
X488940Y231700D02*
Y233300D01*
X490540D01*
Y231700D01*
X488940D01*
X489340Y232100D02*
Y232900D01*
X490140D01*
Y232100D01*
X489340D01*
X488940Y221700D02*
Y223300D01*
X490540D01*
Y221700D01*
X488940D01*
X489340Y222100D02*
Y222900D01*
X490140D01*
Y222100D01*
X489340D01*
X488940Y211700D02*
Y213300D01*
X490540D01*
Y211700D01*
X488940D01*
X489340Y212100D02*
Y212900D01*
X490140D01*
Y212100D01*
X489340D01*
X488940Y201700D02*
Y203300D01*
X490540D01*
Y201700D01*
X488940D01*
X489340Y202100D02*
Y202900D01*
X490140D01*
Y202100D01*
X489340D01*
X487600Y270600D02*
Y270200D01*
X488400D01*
Y270600D01*
X488800D01*
Y271400D01*
X488400D01*
Y271800D01*
X487600D01*
Y271400D01*
X487200D01*
Y270600D01*
X487600D01*
X477600D02*
Y270200D01*
X478400D01*
Y270600D01*
X478800D01*
Y271400D01*
X478400D01*
Y271800D01*
X477600D01*
Y271400D01*
X477200D01*
Y270600D01*
X477600D01*
X467600D02*
Y270200D01*
X468400D01*
Y270600D01*
X468800D01*
Y271400D01*
X468400D01*
Y271800D01*
X467600D01*
Y271400D01*
X467200D01*
Y270600D01*
X467600D01*
X457600D02*
Y270200D01*
X458400D01*
Y270600D01*
X458800D01*
Y271400D01*
X458400D01*
Y271800D01*
X457600D01*
Y271400D01*
X457200D01*
Y270600D01*
X457600D01*
X447600D02*
Y270200D01*
X448400D01*
Y270600D01*
X448800D01*
Y271400D01*
X448400D01*
Y271800D01*
X447600D01*
Y271400D01*
X447200D01*
Y270600D01*
X447600D01*
X357021Y457600D02*
Y457200D01*
X357821D01*
Y457600D01*
X358221D01*
Y458400D01*
X357821D01*
Y458800D01*
X357021D01*
Y458400D01*
X356621D01*
Y457600D01*
X357021D01*
Y417600D02*
Y417200D01*
X357821D01*
Y417600D01*
X358221D01*
Y418400D01*
X357821D01*
Y418800D01*
X357021D01*
Y418400D01*
X356621D01*
Y417600D01*
X357021D01*
Y377600D02*
Y377200D01*
X357821D01*
Y377600D01*
X358221D01*
Y378400D01*
X357821D01*
Y378800D01*
X357021D01*
Y378400D01*
X356621D01*
Y377600D01*
X357021D01*
Y337600D02*
Y337200D01*
X357821D01*
Y337600D01*
X358221D01*
Y338400D01*
X357821D01*
Y338800D01*
X357021D01*
Y338400D01*
X356621D01*
Y337600D01*
X357021D01*
Y297600D02*
Y297200D01*
X357821D01*
Y297600D01*
X358221D01*
Y298400D01*
X357821D01*
Y298800D01*
X357021D01*
Y298400D01*
X356621D01*
Y297600D01*
X357021D01*
Y467600D02*
Y467200D01*
X357821D01*
Y467600D01*
X358221D01*
Y468400D01*
X357821D01*
Y468800D01*
X357021D01*
Y468400D01*
X356621D01*
Y467600D01*
X357021D01*
Y437600D02*
Y437200D01*
X357821D01*
Y437600D01*
X358221D01*
Y438400D01*
X357821D01*
Y438800D01*
X357021D01*
Y438400D01*
X356621D01*
Y437600D01*
X357021D01*
Y427600D02*
Y427200D01*
X357821D01*
Y427600D01*
X358221D01*
Y428400D01*
X357821D01*
Y428800D01*
X357021D01*
Y428400D01*
X356621D01*
Y427600D01*
X357021D01*
Y407600D02*
Y407200D01*
X357821D01*
Y407600D01*
X358221D01*
Y408400D01*
X357821D01*
Y408800D01*
X357021D01*
Y408400D01*
X356621D01*
Y407600D01*
X357021D01*
Y397600D02*
Y397200D01*
X357821D01*
Y397600D01*
X358221D01*
Y398400D01*
X357821D01*
Y398800D01*
X357021D01*
Y398400D01*
X356621D01*
Y397600D01*
X357021D01*
Y367600D02*
Y367200D01*
X357821D01*
Y367600D01*
X358221D01*
Y368400D01*
X357821D01*
Y368800D01*
X357021D01*
Y368400D01*
X356621D01*
Y367600D01*
X357021D01*
Y357600D02*
Y357200D01*
X357821D01*
Y357600D01*
X358221D01*
Y358400D01*
X357821D01*
Y358800D01*
X357021D01*
Y358400D01*
X356621D01*
Y357600D01*
X357021D01*
Y347600D02*
Y347200D01*
X357821D01*
Y347600D01*
X358221D01*
Y348400D01*
X357821D01*
Y348800D01*
X357021D01*
Y348400D01*
X356621D01*
Y347600D01*
X357021D01*
Y327600D02*
Y327200D01*
X357821D01*
Y327600D01*
X358221D01*
Y328400D01*
X357821D01*
Y328800D01*
X357021D01*
Y328400D01*
X356621D01*
Y327600D01*
X357021D01*
Y317600D02*
Y317200D01*
X357821D01*
Y317600D01*
X358221D01*
Y318400D01*
X357821D01*
Y318800D01*
X357021D01*
Y318400D01*
X356621D01*
Y317600D01*
X357021D01*
Y307600D02*
Y307200D01*
X357821D01*
Y307600D01*
X358221D01*
Y308400D01*
X357821D01*
Y308800D01*
X357021D01*
Y308400D01*
X356621D01*
Y307600D01*
X357021D01*
Y447600D02*
Y447200D01*
X357821D01*
Y447600D01*
X358221D01*
Y448400D01*
X357821D01*
Y448800D01*
X357021D01*
Y448400D01*
X356621D01*
Y447600D01*
X357021D01*
Y387600D02*
Y387200D01*
X357821D01*
Y387600D01*
X358221D01*
Y388400D01*
X357821D01*
Y388800D01*
X357021D01*
Y388400D01*
X356621D01*
Y387600D01*
X357021D01*
Y287600D02*
Y287200D01*
X357821D01*
Y287600D01*
X358221D01*
Y288400D01*
X357821D01*
Y288800D01*
X357021D01*
Y288400D01*
X356621D01*
Y287600D01*
X357021D01*
X447179D02*
Y287200D01*
X447979D01*
Y287600D01*
X448379D01*
Y288400D01*
X447979D01*
Y288800D01*
X447179D01*
Y288400D01*
X446779D01*
Y287600D01*
X447179D01*
Y457600D02*
Y457200D01*
X447979D01*
Y457600D01*
X448379D01*
Y458400D01*
X447979D01*
Y458800D01*
X447179D01*
Y458400D01*
X446779D01*
Y457600D01*
X447179D01*
Y417600D02*
Y417200D01*
X447979D01*
Y417600D01*
X448379D01*
Y418400D01*
X447979D01*
Y418800D01*
X447179D01*
Y418400D01*
X446779D01*
Y417600D01*
X447179D01*
Y377600D02*
Y377200D01*
X447979D01*
Y377600D01*
X448379D01*
Y378400D01*
X447979D01*
Y378800D01*
X447179D01*
Y378400D01*
X446779D01*
Y377600D01*
X447179D01*
Y337600D02*
Y337200D01*
X447979D01*
Y337600D01*
X448379D01*
Y338400D01*
X447979D01*
Y338800D01*
X447179D01*
Y338400D01*
X446779D01*
Y337600D01*
X447179D01*
Y297600D02*
Y297200D01*
X447979D01*
Y297600D01*
X448379D01*
Y298400D01*
X447979D01*
Y298800D01*
X447179D01*
Y298400D01*
X446779D01*
Y297600D01*
X447179D01*
Y467600D02*
Y467200D01*
X447979D01*
Y467600D01*
X448379D01*
Y468400D01*
X447979D01*
Y468800D01*
X447179D01*
Y468400D01*
X446779D01*
Y467600D01*
X447179D01*
Y437600D02*
Y437200D01*
X447979D01*
Y437600D01*
X448379D01*
Y438400D01*
X447979D01*
Y438800D01*
X447179D01*
Y438400D01*
X446779D01*
Y437600D01*
X447179D01*
Y427600D02*
Y427200D01*
X447979D01*
Y427600D01*
X448379D01*
Y428400D01*
X447979D01*
Y428800D01*
X447179D01*
Y428400D01*
X446779D01*
Y427600D01*
X447179D01*
Y407600D02*
Y407200D01*
X447979D01*
Y407600D01*
X448379D01*
Y408400D01*
X447979D01*
Y408800D01*
X447179D01*
Y408400D01*
X446779D01*
Y407600D01*
X447179D01*
Y397600D02*
Y397200D01*
X447979D01*
Y397600D01*
X448379D01*
Y398400D01*
X447979D01*
Y398800D01*
X447179D01*
Y398400D01*
X446779D01*
Y397600D01*
X447179D01*
Y367600D02*
Y367200D01*
X447979D01*
Y367600D01*
X448379D01*
Y368400D01*
X447979D01*
Y368800D01*
X447179D01*
Y368400D01*
X446779D01*
Y367600D01*
X447179D01*
Y357600D02*
Y357200D01*
X447979D01*
Y357600D01*
X448379D01*
Y358400D01*
X447979D01*
Y358800D01*
X447179D01*
Y358400D01*
X446779D01*
Y357600D01*
X447179D01*
Y347600D02*
Y347200D01*
X447979D01*
Y347600D01*
X448379D01*
Y348400D01*
X447979D01*
Y348800D01*
X447179D01*
Y348400D01*
X446779D01*
Y347600D01*
X447179D01*
Y327600D02*
Y327200D01*
X447979D01*
Y327600D01*
X448379D01*
Y328400D01*
X447979D01*
Y328800D01*
X447179D01*
Y328400D01*
X446779D01*
Y327600D01*
X447179D01*
Y317600D02*
Y317200D01*
X447979D01*
Y317600D01*
X448379D01*
Y318400D01*
X447979D01*
Y318800D01*
X447179D01*
Y318400D01*
X446779D01*
Y317600D01*
X447179D01*
Y307600D02*
Y307200D01*
X447979D01*
Y307600D01*
X448379D01*
Y308400D01*
X447979D01*
Y308800D01*
X447179D01*
Y308400D01*
X446779D01*
Y307600D01*
X447179D01*
Y447600D02*
Y447200D01*
X447979D01*
Y447600D01*
X448379D01*
Y448400D01*
X447979D01*
Y448800D01*
X447179D01*
Y448400D01*
X446779D01*
Y447600D01*
X447179D01*
Y387600D02*
Y387200D01*
X447979D01*
Y387600D01*
X448379D01*
Y388400D01*
X447979D01*
Y388800D01*
X447179D01*
Y388400D01*
X446779D01*
Y387600D01*
X447179D01*
X252200Y242500D02*
Y244100D01*
X253800D01*
Y242500D01*
X252200D01*
Y232500D02*
Y234100D01*
X253800D01*
Y232500D01*
X252200D01*
Y222500D02*
Y224100D01*
X253800D01*
Y222500D01*
X252200D01*
Y212500D02*
Y214100D01*
X253800D01*
Y212500D01*
X252200D01*
X282200Y242500D02*
Y244100D01*
X283800D01*
Y242500D01*
X282200D01*
Y232500D02*
Y234100D01*
X283800D01*
Y232500D01*
X282200D01*
Y222500D02*
Y224100D01*
X283800D01*
Y222500D01*
X282200D01*
Y212500D02*
Y214100D01*
X283800D01*
Y212500D01*
X282200D01*
X273358Y123405D02*
X272558Y125005D01*
X274158D01*
X273358Y123405D01*
Y148995D02*
X272558Y150595D01*
X274158D01*
X273358Y148995D01*
X255642Y123405D02*
X254842Y125005D01*
X256442D01*
X255642Y123405D01*
Y148995D02*
X254842Y150595D01*
X256442D01*
X255642Y148995D01*
X236858Y122905D02*
X236058Y124505D01*
X237658D01*
X236858Y122905D01*
Y148495D02*
X236058Y150095D01*
X237658D01*
X236858Y148495D01*
X219142Y122905D02*
X218342Y124505D01*
X219942D01*
X219142Y122905D01*
Y148495D02*
X218342Y150095D01*
X219942D01*
X219142Y148495D01*
X199358Y122905D02*
X198558Y124505D01*
X200158D01*
X199358Y122905D01*
Y148495D02*
X198558Y150095D01*
X200158D01*
X199358Y148495D01*
X181642Y122905D02*
X180842Y124505D01*
X182442D01*
X181642Y122905D01*
Y148495D02*
X180842Y150095D01*
X182442D01*
X181642Y148495D01*
X161858Y122905D02*
X161058Y124505D01*
X162658D01*
X161858Y122905D01*
Y148495D02*
X161058Y150095D01*
X162658D01*
X161858Y148495D01*
X144142Y122905D02*
X143342Y124505D01*
X144942D01*
X144142Y122905D01*
Y148495D02*
X143342Y150095D01*
X144942D01*
X144142Y148495D01*
X153000Y170200D02*
X152200Y171800D01*
X153800D01*
X153000Y170200D01*
Y170600D02*
X152600Y171400D01*
X153400D01*
X153000Y170600D01*
Y180200D02*
X152200Y181800D01*
X153800D01*
X153000Y180200D01*
Y180600D02*
X152600Y181400D01*
X153400D01*
X153000Y180600D01*
X190500Y170700D02*
X189700Y172300D01*
X191300D01*
X190500Y170700D01*
Y171100D02*
X190100Y171900D01*
X190900D01*
X190500Y171100D01*
Y180700D02*
X189700Y182300D01*
X191300D01*
X190500Y180700D01*
Y181100D02*
X190100Y181900D01*
X190900D01*
X190500Y181100D01*
X228000Y170700D02*
X227200Y172300D01*
X228800D01*
X228000Y170700D01*
Y171100D02*
X227600Y171900D01*
X228400D01*
X228000Y171100D01*
Y180700D02*
X227200Y182300D01*
X228800D01*
X228000Y180700D01*
Y181100D02*
X227600Y181900D01*
X228400D01*
X228000Y181100D01*
X265500Y180700D02*
X264700Y182300D01*
X266300D01*
X265500Y180700D01*
Y181100D02*
X265100Y181900D01*
X265900D01*
X265500Y181100D01*
Y170700D02*
X264700Y172300D01*
X266300D01*
X265500Y170700D01*
Y171100D02*
X265100Y171900D01*
X265900D01*
X265500Y171100D01*
X667000Y264700D02*
X666200Y266300D01*
X667800D01*
X667000Y264700D01*
Y254700D02*
X666200Y256300D01*
X667800D01*
X667000Y254700D01*
Y244700D02*
X666200Y246300D01*
X667800D01*
X667000Y244700D01*
X316100Y270600D02*
Y270200D01*
X316900D01*
Y270600D01*
X317300D01*
Y271400D01*
X316900D01*
Y271800D01*
X316100D01*
Y271400D01*
X315700D01*
Y270600D01*
X316100D01*
X326100D02*
Y270200D01*
X326900D01*
Y270600D01*
X327300D01*
Y271400D01*
X326900D01*
Y271800D01*
X326100D01*
Y271400D01*
X325700D01*
Y270600D01*
X326100D01*
X336100D02*
Y270200D01*
X336900D01*
Y270600D01*
X337300D01*
Y271400D01*
X336900D01*
Y271800D01*
X336100D01*
Y271400D01*
X335700D01*
Y270600D01*
X336100D01*
X346100D02*
Y270200D01*
X346900D01*
Y270600D01*
X347300D01*
Y271400D01*
X346900D01*
Y271800D01*
X346100D01*
Y271400D01*
X345700D01*
Y270600D01*
X346100D01*
X356100D02*
Y270200D01*
X356900D01*
Y270600D01*
X357300D01*
Y271400D01*
X356900D01*
Y271800D01*
X356100D01*
Y271400D01*
X355700D01*
Y270600D01*
X356100D01*
X337000Y467200D02*
X336200Y468800D01*
X337800D01*
X337000Y467200D01*
Y457200D02*
X336200Y458800D01*
X337800D01*
X337000Y457200D01*
Y447200D02*
X336200Y448800D01*
X337800D01*
X337000Y447200D01*
Y437200D02*
X336200Y438800D01*
X337800D01*
X337000Y437200D01*
Y427200D02*
X336200Y428800D01*
X337800D01*
X337000Y427200D01*
Y417200D02*
X336200Y418800D01*
X337800D01*
X337000Y417200D01*
Y407200D02*
X336200Y408800D01*
X337800D01*
X337000Y407200D01*
Y397200D02*
X336200Y398800D01*
X337800D01*
X337000Y397200D01*
Y387200D02*
X336200Y388800D01*
X337800D01*
X337000Y387200D01*
Y377200D02*
X336200Y378800D01*
X337800D01*
X337000Y377200D01*
Y367200D02*
X336200Y368800D01*
X337800D01*
X337000Y367200D01*
Y347200D02*
X336200Y348800D01*
X337800D01*
X337000Y347200D01*
Y327200D02*
X336200Y328800D01*
X337800D01*
X337000Y327200D01*
Y317200D02*
X336200Y318800D01*
X337800D01*
X337000Y317200D01*
Y307200D02*
X336200Y308800D01*
X337800D01*
X337000Y307200D01*
Y297200D02*
X336200Y298800D01*
X337800D01*
X337000Y297200D01*
X468500Y467200D02*
X467700Y468800D01*
X469300D01*
X468500Y467200D01*
Y457200D02*
X467700Y458800D01*
X469300D01*
X468500Y457200D01*
Y447200D02*
X467700Y448800D01*
X469300D01*
X468500Y447200D01*
Y437200D02*
X467700Y438800D01*
X469300D01*
X468500Y437200D01*
Y427200D02*
X467700Y428800D01*
X469300D01*
X468500Y427200D01*
Y417200D02*
X467700Y418800D01*
X469300D01*
X468500Y417200D01*
Y407200D02*
X467700Y408800D01*
X469300D01*
X468500Y407200D01*
Y397200D02*
X467700Y398800D01*
X469300D01*
X468500Y397200D01*
Y387200D02*
X467700Y388800D01*
X469300D01*
X468500Y387200D01*
Y377200D02*
X467700Y378800D01*
X469300D01*
X468500Y377200D01*
Y367200D02*
X467700Y368800D01*
X469300D01*
X468500Y367200D01*
Y357200D02*
X467700Y358800D01*
X469300D01*
X468500Y357200D01*
Y347200D02*
X467700Y348800D01*
X469300D01*
X468500Y347200D01*
Y337200D02*
X467700Y338800D01*
X469300D01*
X468500Y337200D01*
Y327200D02*
X467700Y328800D01*
X469300D01*
X468500Y327200D01*
Y317200D02*
X467700Y318800D01*
X469300D01*
X468500Y317200D01*
Y307200D02*
X467700Y308800D01*
X469300D01*
X468500Y307200D01*
Y297200D02*
X467700Y298800D01*
X469300D01*
X468500Y297200D01*
Y287200D02*
X467700Y288800D01*
X469300D01*
X468500Y287200D01*
X342000Y203700D02*
X341200Y205300D01*
X342800D01*
X342000Y203700D01*
Y204100D02*
X341600Y204900D01*
X342400D01*
X342000Y204100D01*
X482000Y357200D02*
X481200Y358800D01*
X482800D01*
X482000Y357200D01*
Y357600D02*
X481600Y358400D01*
X482400D01*
X482000Y357600D01*
Y300700D02*
X481200Y302300D01*
X482800D01*
X482000Y300700D01*
Y301100D02*
X481600Y301900D01*
X482400D01*
X482000Y301100D01*
X543500Y270200D02*
X542700Y271800D01*
X544300D01*
X543500Y270200D01*
Y270600D02*
X543100Y271400D01*
X543900D01*
X543500Y270600D01*
X583000Y297700D02*
X582200Y299300D01*
X583800D01*
X583000Y297700D01*
Y298100D02*
X582600Y298900D01*
X583400D01*
X583000Y298100D01*
Y275200D02*
X582200Y276800D01*
X583800D01*
X583000Y275200D01*
Y275600D02*
X582600Y276400D01*
X583400D01*
X583000Y275600D01*
X571000Y307200D02*
X570200Y308800D01*
X571800D01*
X571000Y307200D01*
Y307600D02*
X570600Y308400D01*
X571400D01*
X571000Y307600D01*
Y278700D02*
X570200Y280300D01*
X571800D01*
X571000Y278700D01*
Y279100D02*
X570600Y279900D01*
X571400D01*
X571000Y279100D01*
X512000Y348200D02*
X511200Y349800D01*
X512800D01*
X512000Y348200D01*
Y348600D02*
X511600Y349400D01*
X512400D01*
X512000Y348600D01*
Y287200D02*
X511200Y288800D01*
X512800D01*
X512000Y287200D01*
Y287600D02*
X511600Y288400D01*
X512400D01*
X512000Y287600D01*
X511500Y270200D02*
X510700Y271800D01*
X512300D01*
X511500Y270200D01*
Y270600D02*
X511100Y271400D01*
X511900D01*
X511500Y270600D01*
X330500Y478200D02*
X329700Y479800D01*
X331300D01*
X330500Y478200D01*
Y478600D02*
X330100Y479400D01*
X330900D01*
X330500Y478600D01*
X296500Y478200D02*
X295700Y479800D01*
X297300D01*
X296500Y478200D01*
Y478600D02*
X296100Y479400D01*
X296900D01*
X296500Y478600D01*
X306000Y203700D02*
X305200Y205300D01*
X306800D01*
X306000Y203700D01*
Y204100D02*
X305600Y204900D01*
X306400D01*
X306000Y204100D01*
D52*
X491800Y378500D02*
G03*
X491800Y378500I-800J0D01*
G01*
X531800D02*
G03*
X531800Y378500I-800J0D01*
G01*
Y365500D02*
G03*
X531800Y365500I-800J0D01*
G01*
X491800D02*
G03*
X491800Y365500I-800J0D01*
G01*
X537800Y170500D02*
G03*
X537800Y170500I-800J0D01*
G01*
X497800D02*
G03*
X497800Y170500I-800J0D01*
G01*
X307800Y357000D02*
G03*
X307800Y357000I-800J0D01*
G01*
X267800D02*
G03*
X267800Y357000I-800J0D01*
G01*
X173300Y344000D02*
G03*
X173300Y344000I-800J0D01*
G01*
X133300D02*
G03*
X133300Y344000I-800J0D01*
G01*
X528300Y475000D02*
G03*
X528300Y475000I-800J0D01*
G01*
X497800D02*
G03*
X497800Y475000I-800J0D01*
G01*
X531800Y391500D02*
G03*
X531800Y391500I-800J0D01*
G01*
X491800D02*
G03*
X491800Y391500I-800J0D01*
G01*
X528300Y435000D02*
G03*
X528300Y435000I-800J0D01*
G01*
X497800D02*
G03*
X497800Y435000I-800J0D01*
G01*
X473800Y238500D02*
G03*
X473800Y238500I-800J0D01*
G01*
Y198500D02*
G03*
X473800Y198500I-800J0D01*
G01*
X290300Y180000D02*
G03*
X290300Y180000I-800J0D01*
G01*
Y140000D02*
G03*
X290300Y140000I-800J0D01*
G01*
X268300Y488000D02*
G03*
X268300Y488000I-800J0D01*
G01*
X308300D02*
G03*
X308300Y488000I-800J0D01*
G01*
Y470000D02*
G03*
X308300Y470000I-800J0D01*
G01*
X268300D02*
G03*
X268300Y470000I-800J0D01*
G01*
X267800Y451000D02*
G03*
X267800Y451000I-800J0D01*
G01*
X307800D02*
G03*
X307800Y451000I-800J0D01*
G01*
X267800Y438000D02*
G03*
X267800Y438000I-800J0D01*
G01*
X307800D02*
G03*
X307800Y438000I-800J0D01*
G01*
X267800Y338500D02*
G03*
X267800Y338500I-800J0D01*
G01*
X307800D02*
G03*
X307800Y338500I-800J0D01*
G01*
X227800Y367500D02*
G03*
X227800Y367500I-800J0D01*
G01*
X237800D02*
G03*
X237800Y367500I-800J0D01*
G01*
X247800D02*
G03*
X247800Y367500I-800J0D01*
G01*
X257800D02*
G03*
X257800Y367500I-800J0D01*
G01*
X267800D02*
G03*
X267800Y367500I-800J0D01*
G01*
X227800Y427500D02*
G03*
X227800Y427500I-800J0D01*
G01*
X237800D02*
G03*
X237800Y427500I-800J0D01*
G01*
X247800D02*
G03*
X247800Y427500I-800J0D01*
G01*
X257800D02*
G03*
X257800Y427500I-800J0D01*
G01*
X267800D02*
G03*
X267800Y427500I-800J0D01*
G01*
X173800Y367500D02*
G03*
X173800Y367500I-800J0D01*
G01*
X183800D02*
G03*
X183800Y367500I-800J0D01*
G01*
X193800D02*
G03*
X193800Y367500I-800J0D01*
G01*
X203800D02*
G03*
X203800Y367500I-800J0D01*
G01*
X213800D02*
G03*
X213800Y367500I-800J0D01*
G01*
X173800Y427500D02*
G03*
X173800Y427500I-800J0D01*
G01*
X183800D02*
G03*
X183800Y427500I-800J0D01*
G01*
X193800D02*
G03*
X193800Y427500I-800J0D01*
G01*
X203800D02*
G03*
X203800Y427500I-800J0D01*
G01*
X213800D02*
G03*
X213800Y427500I-800J0D01*
G01*
X173800Y451500D02*
G03*
X173800Y451500I-800J0D01*
G01*
X133800D02*
G03*
X133800Y451500I-800J0D01*
G01*
X173800Y438500D02*
G03*
X173800Y438500I-800J0D01*
G01*
X133800D02*
G03*
X133800Y438500I-800J0D01*
G01*
Y357500D02*
G03*
X133800Y357500I-800J0D01*
G01*
X173800D02*
G03*
X173800Y357500I-800J0D01*
G01*
X167300Y243500D02*
G03*
X167300Y243500I-800J0D01*
G01*
Y203500D02*
G03*
X167300Y203500I-800J0D01*
G01*
X151800D02*
G03*
X151800Y203500I-800J0D01*
G01*
Y243500D02*
G03*
X151800Y243500I-800J0D01*
G01*
X136800Y203500D02*
G03*
X136800Y203500I-800J0D01*
G01*
Y243500D02*
G03*
X136800Y243500I-800J0D01*
G01*
X511800Y459500D02*
G03*
X511800Y459500I-800J0D01*
G01*
Y449500D02*
G03*
X511800Y449500I-800J0D01*
G01*
X516800Y454500D02*
G03*
X516800Y454500I-800J0D01*
G01*
X305800Y140000D02*
G03*
X305800Y140000I-800J0D01*
G01*
Y180000D02*
G03*
X305800Y180000I-800J0D01*
G01*
X182300Y203500D02*
G03*
X182300Y203500I-800J0D01*
G01*
Y243500D02*
G03*
X182300Y243500I-800J0D01*
G01*
X212300Y203500D02*
G03*
X212300Y203500I-800J0D01*
G01*
Y243500D02*
G03*
X212300Y243500I-800J0D01*
G01*
X197300Y203500D02*
G03*
X197300Y203500I-800J0D01*
G01*
Y243500D02*
G03*
X197300Y243500I-800J0D01*
G01*
X246800Y463500D02*
G03*
X246800Y463500I-800J0D01*
G01*
X251800Y458500D02*
G03*
X251800Y458500I-800J0D01*
G01*
X241800D02*
G03*
X241800Y458500I-800J0D01*
G01*
X189300Y459000D02*
G03*
X189300Y459000I-800J0D01*
G01*
X199300D02*
G03*
X199300Y459000I-800J0D01*
G01*
X194300Y464000D02*
G03*
X194300Y464000I-800J0D01*
G01*
D53*
X227400Y367500D02*
G03*
X227400Y367500I-400J0D01*
G01*
X237400D02*
G03*
X237400Y367500I-400J0D01*
G01*
X247400D02*
G03*
X247400Y367500I-400J0D01*
G01*
X257400D02*
G03*
X257400Y367500I-400J0D01*
G01*
X267400D02*
G03*
X267400Y367500I-400J0D01*
G01*
X227400Y427500D02*
G03*
X227400Y427500I-400J0D01*
G01*
X237400D02*
G03*
X237400Y427500I-400J0D01*
G01*
X247400D02*
G03*
X247400Y427500I-400J0D01*
G01*
X257400D02*
G03*
X257400Y427500I-400J0D01*
G01*
X267400D02*
G03*
X267400Y427500I-400J0D01*
G01*
X173400Y367500D02*
G03*
X173400Y367500I-400J0D01*
G01*
X183400D02*
G03*
X183400Y367500I-400J0D01*
G01*
X193400D02*
G03*
X193400Y367500I-400J0D01*
G01*
X203400D02*
G03*
X203400Y367500I-400J0D01*
G01*
X213400D02*
G03*
X213400Y367500I-400J0D01*
G01*
X173400Y427500D02*
G03*
X173400Y427500I-400J0D01*
G01*
X183400D02*
G03*
X183400Y427500I-400J0D01*
G01*
X193400D02*
G03*
X193400Y427500I-400J0D01*
G01*
X203400D02*
G03*
X203400Y427500I-400J0D01*
G01*
X213400D02*
G03*
X213400Y427500I-400J0D01*
G01*
X511400Y459500D02*
G03*
X511400Y459500I-400J0D01*
G01*
Y449500D02*
G03*
X511400Y449500I-400J0D01*
G01*
X516400Y454500D02*
G03*
X516400Y454500I-400J0D01*
G01*
X246400Y463500D02*
G03*
X246400Y463500I-400J0D01*
G01*
X251400Y458500D02*
G03*
X251400Y458500I-400J0D01*
G01*
X241400D02*
G03*
X241400Y458500I-400J0D01*
G01*
X188900Y459000D02*
G03*
X188900Y459000I-400J0D01*
G01*
X198900D02*
G03*
X198900Y459000I-400J0D01*
G01*
X193900Y464000D02*
G03*
X193900Y464000I-400J0D01*
G01*
M02*
