G04*
G04 #@! TF.GenerationSoftware,Altium Limited,CircuitMaker,2.2.1 (2.2.1.6)*
G04*
G04 Layer_Color=13362661*
%FSLAX25Y25*%
%MOIN*%
G70*
G04*
G04 #@! TF.SameCoordinates,4B569A1E-B195-418F-9F09-93343C68B421*
G04*
G04*
G04 #@! TF.FilePolarity,Positive*
G04*
G01*
G75*
%ADD13C,0.00800*%
%ADD15C,0.00787*%
%ADD16C,0.01000*%
%ADD17C,0.01181*%
%ADD48C,0.01968*%
D13*
X621000Y349500D02*
Y408500D01*
Y349500D02*
X645000D01*
X621000Y408500D02*
X645000D01*
Y386500D02*
Y408500D01*
Y386500D02*
X690500D01*
X645000Y349500D02*
Y371500D01*
X690500D01*
Y386500D01*
D15*
X276311Y125189D02*
Y148811D01*
X252689D02*
X276311D01*
X252689Y125189D02*
Y148811D01*
Y125189D02*
X276311D01*
X239811Y124689D02*
Y148311D01*
X216189D02*
X239811D01*
X216189Y124689D02*
Y148311D01*
Y124689D02*
X239811D01*
X202311D02*
Y148311D01*
X178689D02*
X202311D01*
X178689Y124689D02*
Y148311D01*
Y124689D02*
X202311D01*
X164811D02*
Y148311D01*
X141189D02*
X164811D01*
X141189Y124689D02*
Y148311D01*
Y124689D02*
X164811D01*
D16*
X443000Y266000D02*
Y276000D01*
X493000D01*
Y266000D02*
Y276000D01*
X443000Y266000D02*
X493000D01*
X311500D02*
X361500D01*
Y276000D01*
X311500D02*
X361500D01*
X311500Y266000D02*
Y276000D01*
X448000Y269500D02*
Y273499D01*
X449999D01*
X450666Y272832D01*
Y271499D01*
X449999Y270833D01*
X448000D01*
X454665Y269500D02*
X451999D01*
X454665Y272166D01*
Y272832D01*
X453998Y273499D01*
X452665D01*
X451999Y272832D01*
X316500Y269500D02*
Y273499D01*
X318499D01*
X319166Y272832D01*
Y271499D01*
X318499Y270833D01*
X316500D01*
X320499Y269500D02*
X321832D01*
X321165D01*
Y273499D01*
X320499Y272832D01*
D17*
X265420Y134508D02*
X266470Y133459D01*
X268569D01*
X269618Y134508D01*
Y135558D01*
X268569Y136607D01*
X266470D01*
X265420Y137657D01*
Y138706D01*
X266470Y139756D01*
X268569D01*
X269618Y138706D01*
X263321Y133459D02*
Y139756D01*
X261222Y137657D01*
X259123Y139756D01*
Y133459D01*
X253875Y139756D02*
Y133459D01*
X257024Y136607D01*
X252826D01*
X226302Y140252D02*
X227351Y139203D01*
X229450D01*
X230500Y140252D01*
Y141302D01*
X229450Y142351D01*
X227351D01*
X226302Y143401D01*
Y144450D01*
X227351Y145500D01*
X229450D01*
X230500Y144450D01*
X224203Y139203D02*
Y145500D01*
X222104Y143401D01*
X220005Y145500D01*
Y139203D01*
X217906Y140252D02*
X216856Y139203D01*
X214757D01*
X213707Y140252D01*
Y141302D01*
X214757Y142351D01*
X215807D01*
X214757D01*
X213707Y143401D01*
Y144450D01*
X214757Y145500D01*
X216856D01*
X217906Y144450D01*
X191420Y134008D02*
X192470Y132959D01*
X194569D01*
X195618Y134008D01*
Y135058D01*
X194569Y136107D01*
X192470D01*
X191420Y137157D01*
Y138206D01*
X192470Y139256D01*
X194569D01*
X195618Y138206D01*
X189321Y132959D02*
Y139256D01*
X187222Y137157D01*
X185123Y139256D01*
Y132959D01*
X178826Y139256D02*
X183024D01*
X178826Y135058D01*
Y134008D01*
X179875Y132959D01*
X181974D01*
X183024Y134008D01*
X153920D02*
X154970Y132959D01*
X157069D01*
X158118Y134008D01*
Y135058D01*
X157069Y136107D01*
X154970D01*
X153920Y137157D01*
Y138206D01*
X154970Y139256D01*
X157069D01*
X158118Y138206D01*
X151821Y132959D02*
Y139256D01*
X149722Y137157D01*
X147623Y139256D01*
Y132959D01*
X145524Y139256D02*
X143425D01*
X144474D01*
Y132959D01*
X145524Y134008D01*
D48*
X258201Y130307D02*
G03*
X258201Y130307I-787J0D01*
G01*
X221701Y129807D02*
G03*
X221701Y129807I-787J0D01*
G01*
X184201D02*
G03*
X184201Y129807I-787J0D01*
G01*
X146701D02*
G03*
X146701Y129807I-787J0D01*
G01*
M02*
