G04*
G04 #@! TF.GenerationSoftware,Altium Limited,CircuitMaker,2.2.1 (2.2.1.6)*
G04*
G04 Layer_Color=25308*
%FSLAX25Y25*%
%MOIN*%
G70*
G04*
G04 #@! TF.SameCoordinates,4B569A1E-B195-418F-9F09-93343C68B421*
G04*
G04*
G04 #@! TF.FilePolarity,Positive*
G04*
G01*
G75*
%ADD34C,0.07500*%
%ADD35C,0.09842*%
%ADD36C,0.07874*%
%ADD37O,0.11811X0.07874*%
%ADD38O,0.11811X0.07874*%
%ADD39C,0.11811*%
%ADD40O,0.11811X0.03937*%
%ADD41R,0.07874X0.07874*%
%ADD42R,0.07874X0.07874*%
%ADD43O,0.11811X0.07087*%
%ADD44R,0.09842X0.09842*%
%ADD45C,0.05905*%
D34*
X364500Y204000D02*
D03*
X354500D02*
D03*
D35*
X491000Y378500D02*
D03*
X531000D02*
D03*
Y365500D02*
D03*
X491000D02*
D03*
X307000Y357000D02*
D03*
X267000D02*
D03*
X172500Y344000D02*
D03*
X132500D02*
D03*
X527500Y475000D02*
D03*
X497000D02*
D03*
X531000Y391500D02*
D03*
X491000D02*
D03*
X527500Y435000D02*
D03*
X497000D02*
D03*
X289500Y180000D02*
D03*
Y140000D02*
D03*
X267500Y488000D02*
D03*
X307500D02*
D03*
Y470000D02*
D03*
X267500D02*
D03*
X267000Y451000D02*
D03*
X307000D02*
D03*
X267000Y438000D02*
D03*
X307000D02*
D03*
X267000Y338500D02*
D03*
X307000D02*
D03*
X173000Y451500D02*
D03*
X133000D02*
D03*
X173000Y438500D02*
D03*
X133000D02*
D03*
Y357500D02*
D03*
X173000D02*
D03*
X166500Y243500D02*
D03*
Y203500D02*
D03*
X151000D02*
D03*
Y243500D02*
D03*
X136000Y203500D02*
D03*
Y243500D02*
D03*
X273358Y124205D02*
D03*
Y149795D02*
D03*
X255642D02*
D03*
X236858Y123705D02*
D03*
Y149295D02*
D03*
X219142D02*
D03*
X199358Y123705D02*
D03*
Y149295D02*
D03*
X181642D02*
D03*
X161858Y123705D02*
D03*
Y149295D02*
D03*
X144142D02*
D03*
X305000Y140000D02*
D03*
Y180000D02*
D03*
X181500Y203500D02*
D03*
Y243500D02*
D03*
X211500Y203500D02*
D03*
Y243500D02*
D03*
X196500Y203500D02*
D03*
Y243500D02*
D03*
D36*
X537000Y170500D02*
D03*
X497000D02*
D03*
X667000Y235500D02*
D03*
X510000Y151000D02*
D03*
X489740Y222500D02*
D03*
Y212500D02*
D03*
Y202500D02*
D03*
X473000Y238500D02*
D03*
Y198500D02*
D03*
X488000Y271000D02*
D03*
X478000D02*
D03*
X468000D02*
D03*
X458000D02*
D03*
X448000D02*
D03*
X227000Y367500D02*
D03*
X237000D02*
D03*
X247000D02*
D03*
X257000D02*
D03*
X267000D02*
D03*
X227000Y427500D02*
D03*
X237000D02*
D03*
X247000D02*
D03*
X257000D02*
D03*
X267000D02*
D03*
X173000Y367500D02*
D03*
X183000D02*
D03*
X193000D02*
D03*
X203000D02*
D03*
X213000D02*
D03*
X173000Y427500D02*
D03*
X183000D02*
D03*
X193000D02*
D03*
X203000D02*
D03*
X213000D02*
D03*
X253000Y243300D02*
D03*
Y233300D02*
D03*
Y223300D02*
D03*
Y213300D02*
D03*
X283000Y243300D02*
D03*
Y233300D02*
D03*
Y223300D02*
D03*
X153000Y171000D02*
D03*
Y181000D02*
D03*
X190500Y171500D02*
D03*
Y181500D02*
D03*
X228000Y171500D02*
D03*
Y181500D02*
D03*
X265500D02*
D03*
Y171500D02*
D03*
X667000Y265500D02*
D03*
Y255500D02*
D03*
Y245500D02*
D03*
X316500Y271000D02*
D03*
X326500D02*
D03*
X336500D02*
D03*
X346500D02*
D03*
X356500D02*
D03*
D37*
X337000Y358000D02*
D03*
Y288000D02*
D03*
Y468000D02*
D03*
Y458000D02*
D03*
Y448000D02*
D03*
Y438000D02*
D03*
Y428000D02*
D03*
Y418000D02*
D03*
Y408000D02*
D03*
Y398000D02*
D03*
Y388000D02*
D03*
Y378000D02*
D03*
Y368000D02*
D03*
Y328000D02*
D03*
Y318000D02*
D03*
Y308000D02*
D03*
Y298000D02*
D03*
X468500Y468000D02*
D03*
Y458000D02*
D03*
Y448000D02*
D03*
Y438000D02*
D03*
Y428000D02*
D03*
Y418000D02*
D03*
Y408000D02*
D03*
Y398000D02*
D03*
Y388000D02*
D03*
Y378000D02*
D03*
Y368000D02*
D03*
Y358000D02*
D03*
Y348000D02*
D03*
Y338000D02*
D03*
Y328000D02*
D03*
Y318000D02*
D03*
Y308000D02*
D03*
Y298000D02*
D03*
Y288000D02*
D03*
D38*
X337000Y338000D02*
D03*
Y348000D02*
D03*
D39*
X554000Y475500D02*
D03*
Y435500D02*
D03*
X584374Y479622D02*
D03*
X677000Y476185D02*
D03*
X599000Y359000D02*
D03*
Y379000D02*
D03*
Y399000D02*
D03*
X677000Y436815D02*
D03*
Y456500D02*
D03*
X576500Y456000D02*
D03*
X632406Y479622D02*
D03*
Y432378D02*
D03*
X584374D02*
D03*
D40*
X550500Y386858D02*
D03*
Y380953D02*
D03*
Y375047D02*
D03*
Y369142D02*
D03*
D41*
X524000Y151000D02*
D03*
D42*
X489740Y232500D02*
D03*
X283000Y213300D02*
D03*
D43*
X357421Y458000D02*
D03*
Y418000D02*
D03*
Y378000D02*
D03*
Y338000D02*
D03*
Y298000D02*
D03*
Y468000D02*
D03*
Y438000D02*
D03*
Y428000D02*
D03*
Y408000D02*
D03*
Y398000D02*
D03*
Y368000D02*
D03*
Y358000D02*
D03*
Y348000D02*
D03*
Y328000D02*
D03*
Y318000D02*
D03*
Y308000D02*
D03*
Y448000D02*
D03*
Y388000D02*
D03*
Y288000D02*
D03*
X447579D02*
D03*
Y458000D02*
D03*
Y418000D02*
D03*
Y378000D02*
D03*
Y338000D02*
D03*
Y298000D02*
D03*
Y468000D02*
D03*
Y438000D02*
D03*
Y428000D02*
D03*
Y408000D02*
D03*
Y398000D02*
D03*
Y368000D02*
D03*
Y358000D02*
D03*
Y348000D02*
D03*
Y328000D02*
D03*
Y318000D02*
D03*
Y308000D02*
D03*
Y448000D02*
D03*
Y388000D02*
D03*
D44*
X255642Y124205D02*
D03*
X219142Y123705D02*
D03*
X181642D02*
D03*
X144142D02*
D03*
D45*
X511000Y459500D02*
D03*
Y449500D02*
D03*
X516000Y454500D02*
D03*
X246000Y463500D02*
D03*
X251000Y458500D02*
D03*
X241000D02*
D03*
X188500Y459000D02*
D03*
X198500D02*
D03*
X193500Y464000D02*
D03*
M02*
