M48
;Layer_Color=6321
;FILE_FORMAT=2:4
INCH,TZ
;TYPE=PLATED
T1F00S00C0.0280
T2F00S00C0.0295
T3F00S00C0.0300
T4F00S00C0.0315
T5F00S00C0.0350
T6F00S00C0.0354
T7F00S00C0.0394
T8F00S00C0.0400
T9F00S00C0.0433
T10F00S00C0.0470
T11F00S00C0.0531
%
T01
X51150Y27100
X51200Y28800
X48200Y30150
X54350Y27100
X57100Y27950
X58300Y27600
Y29850
X57100Y30800
X34200Y20450
X30600
X26550Y18150
Y17150
X22800
Y18150
X19050
Y17150
X15300Y17100
Y18100
X48200Y35800
X51200Y34900
X33050Y47900
X29650
T02
X28950Y14000
X30500
X49700Y17050
X53700
X47300Y19850
Y23850
X30500Y18000
X28950
X21150Y20350
X19650
X18150
X16650
Y24350
X18150
X19650
X21150
X15100
X13600
Y20350
X15100
X13250Y34400
X13300Y35750
Y43850
Y45150
X17300
Y43850
Y35750
X17250Y34400
X26700Y33850
Y35700
X30700
Y33850
Y43800
Y45100
X26700
Y43800
X49700Y43500
X52750
X53100Y39150
Y37850
Y36550
X49100
Y37850
Y39150
X49700Y47500
X52750
X30750Y47000
Y48800
X26750
Y47000
T03
X51000Y15100
X52400
X55050Y36914
Y37505
Y38095
Y38686
T04
X17300Y36750
X18300
X19300
X20300
X21300
X22700
X23700
X24700
X25700
X26700
Y42750
X25700
X24700
X23700
X22700
X21300
X20300
X19300
X18300
X17300
X18850Y45900
X19850
X19350Y46400
X24600Y46350
X25100Y45850
X24100
X51100Y45950
Y44950
X51600Y45450
T05
X48974Y20250
Y21250
Y22250
Y23250
T06
X35450Y20400
X36450
X28300Y21330
Y22330
Y23330
Y24330
X25300
Y23330
Y22330
Y21330
T07
X14414Y12370
Y14930
X16186
X18164
X19936
X21914
X23686
X25564Y14980
X27336
Y12420
X25564
X23686Y12370
X21914
X19936
X18164
X16186
X66700Y23550
Y24550
Y25550
Y26550
X46850Y28800
Y29800
Y30800
X33700
Y29800
Y28800
Y31800
Y32800
Y33800
Y34800
Y35800
Y36800
Y37800
Y38800
Y39800
Y40800
Y41800
Y42800
Y43800
Y44800
Y45800
Y46800
X46850
Y45800
Y44800
Y43800
Y42800
Y41800
Y40800
Y39800
Y38800
Y37800
Y36800
Y35800
Y34800
Y33800
Y32800
Y31800
T08
X55400Y43550
Y47550
T09
X47800Y27100
X48800
X46800
X45800
X44800
X44758Y28800
Y29800
Y30800
X35742
Y29800
Y28800
X35650Y27100
X34650
X33650
X32650
X31650
X35742Y31800
Y32800
Y33800
Y34800
Y35800
Y36800
Y37800
Y38800
Y39800
Y40800
Y41800
Y42800
Y43800
Y44800
Y45800
Y46800
X44758
Y45800
Y44800
Y43800
Y42800
Y41800
Y40800
Y39800
Y38800
Y37800
Y36800
Y35800
Y34800
Y33800
Y32800
Y31800
X67700Y43682
Y45650
Y47618
T10
X59900Y35900
Y37900
Y39900
T11
X58437Y43238
X57650Y45600
X63241Y43238
Y47962
X58437
M30
